<?xml version="1.0" encoding="utf-8"?>
<!-- Generator: Adobe Illustrator 24.2.1, SVG Export Plug-In . SVG Version: 6.00 Build 0)  -->
<svg version="1.1" id="Layer_1" xmlns="http://www.w3.org/2000/svg" xmlns:xlink="http://www.w3.org/1999/xlink" x="0px" y="0px"
	 viewBox="0 0 532 301" style="enable-background:new 0 0 532 301;" xml:space="preserve">
<style type="text/css">
	.st0{font-family:'DINPro-Medium';}
	.st1{font-size:36px;}
	.st2{fill:#EB2027;}
	.st3{fill:url(#SVGID_1_);}
	.st4{fill:url(#SVGID_2_);}
	.st5{fill:#EA2127;}
	.st6{fill:#656062;}
</style>
<text transform="matrix(1 0 0 1 121.4797 54.3197)" class="st0 st1">Partner Incubator</text>
<g>
	<g>
		<g>
			<g>
				<g>
					<path class="st2" d="M86.2,152.97c0,12.15,0.71,18.74,3.1,21.4c1.78,2.04,4.53,3.37,7.9,3.37c3.36,0,6.2-1.33,7.98-3.37
						c2.39-2.66,3.01-9.25,3.01-21.4c0-12.14-0.71-18.73-3.1-21.39c-1.77-2.04-4.53-3.37-7.89-3.37c-3.37,0-6.21,1.33-7.98,3.37
						C86.83,134.24,86.2,140.82,86.2,152.97 M114.22,178.15c-4.43,4.43-9.84,6.91-17.02,6.91c-7.19,0-12.68-2.47-17.11-6.91
						c-6.39-6.39-6.21-14.27-6.21-25.18c0-10.9-0.18-18.79,6.21-25.18c4.43-4.43,9.92-6.92,17.11-6.92c7.18,0,12.59,2.49,17.02,6.92
						c6.38,6.38,6.29,14.27,6.29,25.18C120.51,163.87,120.59,171.76,114.22,178.15"/>
					<path class="st2" d="M160.61,157.31c6.12-2.21,11.53-7.71,11.53-16.58c0-10.55-7.63-19.33-20.48-19.33h-23.45
						c-0.71,0-1.28,0.58-1.28,1.29v60.55c0,0.71,0.58,1.29,1.28,1.29h9.76c0.7,0,1.29-0.58,1.29-1.29v-53.22v-1.29h1.27h10.31
						c6.9,0,11.42,4.42,11.42,10.65c0,6.22-4.52,10.64-11.42,10.64h-5.36c-0.71,0-1.03,0.52-0.72,1.15l15.76,32.2
						c0.3,0.64,1.14,1.16,1.84,1.16h11.07c0.7,0,1.01-0.52,0.69-1.14L160.61,157.31z"/>
					<path class="st2" d="M246.31,128.73h26.68c0.72,0,1.29-0.57,1.29-1.27v-4.76c0-0.71-0.57-1.29-1.29-1.29h-39.01
						c-0.7,0-1.29,0.58-1.29,1.29v60.55c0,0.71,0.58,1.29,1.29,1.29h39.01c0.72,0,1.29-0.58,1.29-1.29v-4.76
						c0-0.71-0.57-1.28-1.29-1.28h-26.68c-0.7,0-1.29-0.58-1.29-1.29v-18.27c0-0.7,0.59-1.29,1.29-1.29h22.34
						c0.71,0,1.29-0.58,1.29-1.28v-4.76c0-0.71-0.58-1.29-1.29-1.29h-22.34c-0.7,0-1.29-0.57-1.29-1.28v-17.73
						C245.02,129.32,245.6,128.73,246.31,128.73"/>
					<path class="st2" d="M213.08,139.92c0.13,0.65,0.74,1.17,1.42,1.17h8.83c0.7,0,1.2-0.57,1.09-1.27c0,0-0.05-0.41-0.21-1.14
						c-2.38-9.91-9.65-17.81-22.96-17.81c-6.75,0-12.41,2.31-17.02,6.92c-2.75,2.75-4.44,5.85-5.15,9.49
						c-0.7,3.55-1.05,8.78-1.05,15.69c0,6.92,0.35,12.15,1.05,15.69c0.71,3.55,2.4,6.74,5.15,9.49c4.61,4.61,10.28,6.91,17.02,6.91
						c5.53,0,10.48-1.46,14.63-4.42c0.27-0.19,0,0,0,0c0.94-0.76,1.78-0.69,2.36-0.29l5.47,3.99c0.58,0.4,1.06,0.18,1.06-0.52
						v-32.13c0-0.71-0.58-1.29-1.28-1.29h-20.32c-0.7,0-1.28,0.58-1.28,1.29v4.76c0,0.7,0.58,1.28,1.28,1.28l8.99,0.01
						c0.71,0,1.29,0.57,1.31,1.28c0,0,0.34,11.81-2.96,15.34c-1.82,2.04-5.49,3.37-8.96,3.37c-3.36,0-6.35-1.33-8.11-3.37
						c-2.4-2.66-3.1-9.25-3.1-21.4c0-12.14,0.62-18.73,3.01-21.39c1.77-2.04,4.74-3.37,8.11-3.37c3.47,0,7.12,1.33,8.94,3.37
						c1.36,1.48,2.21,4.16,2.7,8.33"/>
					<path class="st2" d="M67.95,157.08c0.72,0,1.29-0.58,1.29-1.28v-4.76c0-0.71-0.57-1.29-1.29-1.29l-22.34,0.01
						c-0.71,0-1.29-0.58-1.29-1.28v-18.44c0-0.71,0.58-1.29,1.29-1.29H72.3c0.7,0,1.28-0.57,1.28-1.28v-4.76
						c0-0.71-0.59-1.29-1.28-1.29H33.29c-0.71,0-1.29,0.58-1.29,1.29v60.55c0,0.71,0.57,1.29,1.28,1.29h9.76
						c0.71,0,1.28-0.58,1.28-1.29v-24.88c0-0.71,0.58-1.29,1.29-1.29H67.95z"/>
				</g>
			</g>
			<g>
				<linearGradient id="SVGID_1_" gradientUnits="userSpaceOnUse" x1="394.1982" y1="113.6177" x2="405.8432" y2="259.9554">
					<stop  offset="0" style="stop-color:#E7282B"/>
					<stop  offset="0.2377" style="stop-color:#F05B27"/>
					<stop  offset="0.3234" style="stop-color:#F06825"/>
					<stop  offset="0.5064" style="stop-color:#F17F21"/>
					<stop  offset="0.6519" style="stop-color:#F18320"/>
					<stop  offset="0.8121" style="stop-color:#F3911F"/>
					<stop  offset="0.979" style="stop-color:#F5A71B"/>
					<stop  offset="1" style="stop-color:#F5AA1B"/>
				</linearGradient>
				<path class="st3" d="M498.3,130.53l-119-44.88c-1.98-0.75-4.99-0.34-6.7,0.9l-43.49,31.83c-1.7,1.25-1.39,2.59,0.69,2.98
					l91.89,17.12l-122.79,71.8c-1.52,0.89-1.53,2.37-0.04,3.3l100.23,61.44c1.51,0.92,3.56,0.48,4.55-0.97l95.87-139.78
					C500.5,132.85,499.96,131.15,498.3,130.53z"/>
				<linearGradient id="SVGID_2_" gradientUnits="userSpaceOnUse" x1="401.2329" y1="153.2561" x2="394.1763" y2="118.8759">
					<stop  offset="0" style="stop-color:#4C1817"/>
					<stop  offset="0.4667" style="stop-color:#9F3A1F;stop-opacity:0.5333"/>
					<stop  offset="0.8276" style="stop-color:#D95225;stop-opacity:0.1724"/>
					<stop  offset="1" style="stop-color:#F05B27;stop-opacity:0"/>
				</linearGradient>
				<path class="st4" d="M379.3,85.65c-1.98-0.75-4.99-0.34-6.7,0.9l-43.49,31.83c-1.7,1.25-1.39,2.59,0.69,2.98l91.89,17.12
					l38.32-22.4L379.3,85.65z"/>
			</g>
		</g>
		<g>
			<path class="st5" d="M488.42,109.91c0,0.82-0.16,1.59-0.47,2.31c-0.31,0.72-0.74,1.35-1.27,1.89c-0.54,0.54-1.17,0.96-1.89,1.27
				s-1.49,0.47-2.31,0.47s-1.59-0.16-2.31-0.47c-0.72-0.31-1.35-0.74-1.89-1.27c-0.54-0.54-0.96-1.16-1.27-1.89
				c-0.31-0.72-0.47-1.49-0.47-2.31s0.16-1.59,0.47-2.31s0.74-1.35,1.27-1.89c0.54-0.54,1.16-0.96,1.89-1.27
				c0.72-0.31,1.49-0.47,2.31-0.47s1.59,0.16,2.31,0.47c0.72,0.31,1.35,0.74,1.89,1.27c0.54,0.54,0.96,1.17,1.27,1.89
				C488.26,108.32,488.42,109.09,488.42,109.91z M487.22,109.91c0-0.68-0.12-1.31-0.37-1.9c-0.25-0.59-0.58-1.1-1.01-1.53
				s-0.93-0.77-1.5-1.03s-1.2-0.38-1.86-0.38s-1.29,0.13-1.87,0.38s-1.08,0.59-1.51,1.03c-0.43,0.43-0.76,0.94-1.01,1.53
				c-0.25,0.59-0.37,1.23-0.37,1.9c0,0.68,0.12,1.31,0.37,1.9c0.25,0.59,0.58,1.1,1.01,1.53c0.43,0.43,0.93,0.77,1.51,1.03
				s1.2,0.38,1.87,0.38s1.29-0.13,1.86-0.38s1.07-0.59,1.5-1.03s0.76-0.94,1.01-1.53C487.1,111.23,487.22,110.59,487.22,109.91z
				 M483.73,113.11l-1.31-2.54h-0.82v2.54h-1.18v-6.41h2.41c0.31,0,0.58,0.05,0.84,0.16c0.25,0.1,0.47,0.25,0.65,0.43
				s0.32,0.39,0.43,0.63c0.1,0.24,0.16,0.49,0.16,0.75c0,0.46-0.12,0.83-0.37,1.12c-0.25,0.29-0.54,0.5-0.89,0.62l1.43,2.71H483.73z
				 M483.73,108.67c0-0.27-0.1-0.5-0.29-0.69s-0.45-0.28-0.76-0.28h-1.08v1.94h1.08c0.32,0,0.57-0.09,0.76-0.28
				S483.73,108.94,483.73,108.67z"/>
		</g>
	</g>
	<g>
		<path class="st6" d="M43.03,227v10.69h-2.76V227l-7.71-15.19h2.98l6.11,12.39l6.03-12.39h2.98L43.03,227z"/>
		<path class="st6" d="M62.8,235.87c-1.24,1.24-2.94,2.04-5.13,2.04s-3.89-0.8-5.13-2.04c-1.82-1.85-2.18-4.36-2.18-7.12
			c0-2.76,0.36-5.27,2.18-7.12c1.24-1.24,2.94-2.04,5.13-2.04s3.89,0.8,5.13,2.04c1.82,1.85,2.18,4.36,2.18,7.12
			C64.98,231.51,64.62,234.02,62.8,235.87z M60.94,223.22c-0.84-0.84-2-1.31-3.27-1.31s-2.4,0.47-3.24,1.31
			c-1.31,1.31-1.45,3.53-1.45,5.52s0.15,4.22,1.45,5.52c0.84,0.84,1.96,1.31,3.24,1.31s2.44-0.47,3.27-1.31
			c1.31-1.31,1.42-3.53,1.42-5.52S62.25,224.53,60.94,223.22z"/>
		<path class="st6" d="M81.88,237.69v-2c-1.27,1.45-3.05,2.22-5.05,2.22c-1.93,0-3.53-0.58-4.62-1.67
			c-1.27-1.24-1.82-2.94-1.82-5.02V219.8h2.62v11.01c0,3.16,1.67,4.76,4.36,4.76c2.69,0,4.47-1.64,4.47-4.76V219.8h2.62v17.88H81.88
			z"/>
		<path class="st6" d="M101,223.22c-0.98-0.98-1.71-1.31-3.09-1.31c-2.62,0-4.29,2.07-4.29,4.8v10.98H91V219.8h2.62v2.18
			c0.98-1.49,2.94-2.4,5.02-2.4c1.71,0,3.02,0.4,4.29,1.67L101,223.22z"/>
		<path class="st6" d="M115.83,237.69v-25.88h2.76v25.88H115.83z"/>
		<path class="st6" d="M137.05,237.69v-11.01c0-3.16-1.71-4.76-4.4-4.76s-4.43,1.64-4.43,4.76v11.01h-2.62V219.8h2.62v1.96
			c1.27-1.45,3.02-2.18,5.02-2.18c1.93,0,3.49,0.58,4.58,1.67c1.27,1.24,1.85,2.91,1.85,4.98v11.45H137.05z"/>
		<path class="st6" d="M157.48,237.69v-11.01c0-3.16-1.71-4.76-4.4-4.76s-4.43,1.64-4.43,4.76v11.01h-2.62V219.8h2.62v1.96
			c1.27-1.45,3.02-2.18,5.02-2.18c1.93,0,3.49,0.58,4.58,1.67c1.27,1.24,1.85,2.91,1.85,4.98v11.45H157.48z"/>
		<path class="st6" d="M177.94,235.87c-1.24,1.24-2.94,2.04-5.13,2.04s-3.89-0.8-5.13-2.04c-1.82-1.85-2.18-4.36-2.18-7.12
			c0-2.76,0.36-5.27,2.18-7.12c1.24-1.24,2.94-2.04,5.13-2.04s3.89,0.8,5.13,2.04c1.82,1.85,2.18,4.36,2.18,7.12
			C180.13,231.51,179.76,234.02,177.94,235.87z M176.09,223.22c-0.84-0.84-2-1.31-3.27-1.31s-2.4,0.47-3.24,1.31
			c-1.31,1.31-1.45,3.53-1.45,5.52s0.15,4.22,1.45,5.52c0.84,0.84,1.96,1.31,3.24,1.31s2.44-0.47,3.27-1.31
			c1.31-1.31,1.42-3.53,1.42-5.52S177.4,224.53,176.09,223.22z"/>
		<path class="st6" d="M191.36,237.69h-2.33l-6.54-17.88h2.83l4.87,14.36l4.91-14.36h2.83L191.36,237.69z"/>
		<path class="st6" d="M211.38,237.69v-1.71c-1.45,1.45-2.76,1.93-5.16,1.93c-2.47,0-3.93-0.47-5.05-1.64
			c-0.87-0.87-1.34-2.22-1.34-3.63c0-3.13,2.18-5.16,6.18-5.16h5.38v-1.71c0-2.62-1.31-3.92-4.58-3.92c-2.29,0-3.45,0.54-4.51,2.04
			l-1.78-1.64c1.6-2.07,3.42-2.65,6.32-2.65c4.8,0,7.16,2.07,7.16,5.96v12.14H211.38z M211.38,229.44h-5.02c-2.69,0-4,1.09-4,3.16
			c0,2.07,1.27,3.05,4.11,3.05c1.53,0,2.87-0.11,4-1.2c0.62-0.58,0.91-1.6,0.91-3.09V229.44z"/>
		<path class="st6" d="M225.38,237.69c-3.05,0-4.58-2.14-4.58-4.8v-10.98h-2.25v-2h2.25v-5.6h2.62v5.6h3.82v2h-3.82v10.9
			c0,1.64,0.76,2.62,2.44,2.62h1.38v2.25H225.38z"/>
		<path class="st6" d="M232.28,214.72v-2.94h2.94v2.94H232.28z M232.43,237.69V219.8h2.62v17.88H232.43z"/>
		<path class="st6" d="M253.11,235.87c-1.24,1.24-2.94,2.04-5.13,2.04s-3.89-0.8-5.13-2.04c-1.82-1.85-2.18-4.36-2.18-7.12
			c0-2.76,0.36-5.27,2.18-7.12c1.24-1.24,2.94-2.04,5.13-2.04s3.89,0.8,5.13,2.04c1.82,1.85,2.18,4.36,2.18,7.12
			C255.29,231.51,254.93,234.02,253.11,235.87z M251.26,223.22c-0.84-0.84-2-1.31-3.27-1.31s-2.4,0.47-3.23,1.31
			c-1.31,1.31-1.45,3.53-1.45,5.52s0.15,4.22,1.45,5.52c0.84,0.84,1.96,1.31,3.23,1.31s2.44-0.47,3.27-1.31
			c1.31-1.31,1.42-3.53,1.42-5.52S252.56,224.53,251.26,223.22z"/>
		<path class="st6" d="M272.34,237.69v-11.01c0-3.16-1.71-4.76-4.4-4.76s-4.43,1.64-4.43,4.76v11.01h-2.62V219.8h2.62v1.96
			c1.27-1.45,3.02-2.18,5.02-2.18c1.93,0,3.49,0.58,4.58,1.67c1.27,1.24,1.85,2.91,1.85,4.98v11.45H272.34z"/>
		<path class="st6" d="M53.2,275.26l-2.33-2.83c-1.05,0.98-3.49,3.05-7.63,3.05c-5.02,0-8.18-3.02-8.18-7.52
			c0-3.89,2.76-5.85,5.6-7.74c-1.27-1.53-2.8-3.31-2.8-5.63c0-3.09,2.4-5.42,5.71-5.42c3.23,0,5.63,2.36,5.63,5.45
			c0,2.07-1.24,3.49-2.87,4.62c0,0-1.31,0.87-1.93,1.31l6.62,7.96c1.05-1.6,1.42-3.02,1.45-5.92h2.62c-0.04,3.27-0.73,5.92-2.4,7.92
			l3.96,4.76H53.2z M42.19,261.95c-2.22,1.53-4.43,2.98-4.43,5.92c0,3.09,2.25,5.16,5.45,5.16c1.93,0,3.89-0.51,6.11-2.51
			L42.19,261.95z M43.57,251.52c-1.78,0-2.98,1.27-2.98,3.02c0,1.2,0.62,2.18,2.33,4.25c0.44-0.29,1.38-0.95,1.38-0.95
			c1.2-0.84,2.33-1.74,2.33-3.23C46.62,252.87,45.32,251.52,43.57,251.52z"/>
		<path class="st6" d="M86.9,272.49c-1.82,1.96-4.25,2.98-6.91,2.98c-2.54,0-4.87-0.94-6.62-2.69c-2.43-2.44-2.43-4.98-2.43-10.47
			s0-8.03,2.43-10.47c1.75-1.74,4.04-2.69,6.62-2.69c4.94,0,8.29,3.2,9.05,7.74h-2.76c-0.73-3.27-3.05-5.27-6.29-5.27
			c-1.71,0-3.34,0.69-4.47,1.85c-1.64,1.67-1.82,3.42-1.82,8.83c0,5.42,0.18,7.2,1.82,8.87c1.13,1.16,2.76,1.82,4.47,1.82
			c1.89,0,3.71-0.76,4.91-2.22c1.05-1.27,1.45-2.69,1.45-4.69v-1.96h-6.36v-2.44h9.12v4.11C89.11,268.79,88.49,270.78,86.9,272.49z"
			/>
		<path class="st6" d="M105.07,260.79c-0.98-0.98-1.71-1.31-3.09-1.31c-2.62,0-4.29,2.07-4.29,4.8v10.98h-2.62v-17.88h2.62v2.18
			c0.98-1.49,2.94-2.4,5.02-2.4c1.71,0,3.02,0.4,4.29,1.67L105.07,260.79z"/>
		<path class="st6" d="M120.63,273.44c-1.24,1.24-2.94,2.04-5.13,2.04s-3.89-0.8-5.13-2.04c-1.82-1.85-2.18-4.36-2.18-7.12
			c0-2.76,0.36-5.27,2.18-7.12c1.24-1.24,2.94-2.04,5.13-2.04s3.89,0.8,5.13,2.04c1.82,1.85,2.18,4.36,2.18,7.12
			C122.81,269.08,122.44,271.58,120.63,273.44z M118.77,260.79c-0.84-0.84-2-1.31-3.27-1.31s-2.4,0.47-3.24,1.31
			c-1.31,1.31-1.45,3.53-1.45,5.52s0.15,4.22,1.45,5.52c0.84,0.84,1.96,1.31,3.24,1.31s2.44-0.47,3.27-1.31
			c1.31-1.31,1.42-3.53,1.42-5.52S120.08,262.1,118.77,260.79z"/>
		<path class="st6" d="M145.23,275.26h-2.44l-4.69-13.88l-4.65,13.88h-2.43l-5.67-17.88h2.83l4.11,14.36l4.69-14.36h2.25l4.72,14.36
			l4.07-14.36h2.83L145.23,275.26z"/>
		<path class="st6" d="M159.55,275.26c-3.05,0-4.58-2.14-4.58-4.8v-10.98h-2.25v-2h2.25v-5.6h2.62v5.6h3.82v2h-3.82v10.9
			c0,1.64,0.76,2.62,2.44,2.62h1.38v2.25H159.55z"/>
		<path class="st6" d="M178.05,275.26v-11.05c0-3.13-1.67-4.73-4.36-4.73c-2.69,0-4.47,1.64-4.47,4.73v11.05h-2.62v-25.88h2.62v9.96
			c1.31-1.49,3.02-2.18,5.02-2.18c4.03,0,6.43,2.58,6.43,6.62v11.49H178.05z"/>
		<path class="st6" d="M206.19,264.61h-6.87v10.65h-2.76v-25.88h9.63c4.73,0,8,2.94,8,7.6
			C214.18,261.63,210.91,264.61,206.19,264.61z M205.93,251.85h-6.62v10.29h6.62c3.23,0,5.49-1.74,5.49-5.16
			C211.42,253.56,209.17,251.85,205.93,251.85z"/>
		<path class="st6" d="M228.76,275.26v-1.71c-1.45,1.45-2.76,1.93-5.16,1.93c-2.47,0-3.93-0.47-5.05-1.64
			c-0.87-0.87-1.34-2.22-1.34-3.63c0-3.13,2.18-5.16,6.18-5.16h5.38v-1.71c0-2.62-1.31-3.92-4.58-3.92c-2.29,0-3.45,0.54-4.51,2.04
			l-1.78-1.64c1.6-2.07,3.42-2.65,6.32-2.65c4.8,0,7.16,2.07,7.16,5.96v12.14H228.76z M228.76,267h-5.02c-2.69,0-4,1.09-4,3.16
			c0,2.07,1.27,3.05,4.11,3.05c1.53,0,2.87-0.11,4-1.2c0.62-0.58,0.91-1.6,0.91-3.09V267z"/>
		<path class="st6" d="M247.73,260.79c-0.98-0.98-1.71-1.31-3.09-1.31c-2.62,0-4.29,2.07-4.29,4.8v10.98h-2.62v-17.88h2.62v2.18
			c0.98-1.49,2.94-2.4,5.02-2.4c1.71,0,3.02,0.4,4.29,1.67L247.73,260.79z"/>
		<path class="st6" d="M258.05,275.26c-3.05,0-4.58-2.14-4.58-4.8v-10.98h-2.25v-2h2.25v-5.6h2.62v5.6h3.82v2h-3.82v10.9
			c0,1.64,0.76,2.62,2.44,2.62h1.38v2.25H258.05z"/>
		<path class="st6" d="M276.55,275.26v-11.01c0-3.16-1.71-4.76-4.4-4.76s-4.43,1.64-4.43,4.76v11.01h-2.62v-17.88h2.62v1.96
			c1.27-1.45,3.02-2.18,5.02-2.18c1.93,0,3.49,0.58,4.58,1.67c1.27,1.24,1.85,2.91,1.85,4.98v11.45H276.55z"/>
		<path class="st6" d="M287.17,267c0,3.93,1.85,6.18,5.27,6.18c2.07,0,3.27-0.62,4.69-2.04l1.78,1.56
			c-1.82,1.82-3.49,2.76-6.54,2.76c-4.73,0-7.81-2.83-7.81-9.16c0-5.78,2.8-9.16,7.34-9.16c4.62,0,7.34,3.34,7.34,8.65v1.2H287.17z
			 M296.07,262.06c-0.69-1.64-2.29-2.69-4.18-2.69s-3.49,1.05-4.18,2.69c-0.4,0.98-0.47,1.53-0.54,2.98h9.45
			C296.54,263.59,296.47,263.04,296.07,262.06z"/>
		<path class="st6" d="M314.79,260.79c-0.98-0.98-1.71-1.31-3.09-1.31c-2.62,0-4.29,2.07-4.29,4.8v10.98h-2.62v-17.88h2.62v2.18
			c0.98-1.49,2.94-2.4,5.02-2.4c1.71,0,3.02,0.4,4.29,1.67L314.79,260.79z"/>
	</g>
</g>
</svg>
