<svg id="Layer_1" data-name="Layer 1" xmlns="http://www.w3.org/2000/svg" viewBox="0 0 54.23 64"><defs><style>.cls-1{fill:#e3828a;}</style></defs><title>allIcons</title><path class="cls-1" d="M37.35,64a.84.84,0,0,1-.66-.4L27.08,47,17.45,63.43v0a.72.72,0,0,1-.64.36.84.84,0,0,1-.66-.41L11.32,55H.75a.82.82,0,0,1-.65-.39.81.81,0,0,1,0-.74l0,0L10,36.39l-.53-.22A2.14,2.14,0,0,1,8.06,34l.87-6.19-4.2-4.53a2.15,2.15,0,0,1,0-2.84L9,16,8.25,9.88A2.13,2.13,0,0,1,10,7.55L16,6.48l3-5.41A2,2,0,0,1,20.82,0a1.91,1.91,0,0,1,.94.24l5.5,2.68L32.77.37h0l.09,0a2.19,2.19,0,0,1,.83-.16,2,2,0,0,1,1.8,1.12l3,5.44,6.08,1.2a2.13,2.13,0,0,1,1.64,2.28l-.86,6.19,4.2,4.53a2.16,2.16,0,0,1,0,2.84l-4.22,4.42L46,34.31a2.18,2.18,0,0,1-1.18,2.13l-.5.23,9.78,17.19v0a.56.56,0,0,1,0,.67l0,.05,0,0a.72.72,0,0,1-.63.36H42.83L38,63.62A.75.75,0,0,1,37.35,64ZM25.9,41.79l1.73,3.06.05,0a.55.55,0,0,1,.13.25l0,.05,9.52,16.48,4.42-7.84a.74.74,0,0,1,.65-.38h9.73l-9.4-16.55-4.45.82-3,5.41a2,2,0,0,1-1.81,1,2,2,0,0,1-.92-.2l-5.48-2.67Zm-9,19.69,9.25-16.1-1.66-2.91-2.95,1.37h-.05l-.1,0a2.3,2.3,0,0,1-.82.16,2,2,0,0,1-1.8-1.13v0l-3-5.42-4.25-.75L2.06,53.46h9.73a.86.86,0,0,1,.67.4Zm10.2-21.73A1.9,1.9,0,0,1,28,40l5.71,2.79,3.13-5.62a2.1,2.1,0,0,1,1.44-1l6.25-1-.76-6.39a1.91,1.91,0,0,1,.56-1.7l4.45-4.59L44.4,17.68A2,2,0,0,1,43.88,16l.91-6.39L38.45,8.34h0a1.92,1.92,0,0,1-1.34-1l-3-5.59h-.48L28.2,4.28h0a1.89,1.89,0,0,1-.91.23,1.93,1.93,0,0,1-.92-.23L20.64,1.5,17.51,7.12a2.08,2.08,0,0,1-1.44,1l-6,1.06L10,9.32a.73.73,0,0,0-.21.49v0l.71,5.87a1.94,1.94,0,0,1-.57,1.7L5.51,22l4.3,4.71a2,2,0,0,1,.52,1.7l-.9,6.4L15.84,36h0a1.87,1.87,0,0,1,1.4,1l3,5.59h.48L26.15,40h0A1.89,1.89,0,0,1,27.07,39.75Z"/><path class="cls-1" d="M27.07,34.47A12.34,12.34,0,1,1,39.41,22.14,12.34,12.34,0,0,1,27.07,34.47Zm0-23.12A10.79,10.79,0,1,0,37.85,22.14,10.8,10.8,0,0,0,27.07,11.35Z"/></svg>