<svg xmlns="http://www.w3.org/2000/svg" viewBox="0 0 40.09 64">
  <defs>
    <style>
      .cls-1 {
        fill: #e3828a;
      }
    </style>
  </defs>
  <title>icon-12</title>
  <g id="stroked_icons" data-name="stroked icons">
    <g>
      <path class="cls-1" d="M34.56,9.89a2.54,2.54,0,0,1,2.53,2.54v46A2.54,2.54,0,0,1,34.56,61h-29A2.54,2.54,0,0,1,3,58.47v-46A2.54,2.54,0,0,1,5.53,9.89h29m0-3h-29A5.54,5.54,0,0,0,0,12.43v46A5.54,5.54,0,0,0,5.53,64h29a5.54,5.54,0,0,0,5.53-5.53v-46a5.54,5.54,0,0,0-5.53-5.54Z"/>
      <path class="cls-1" d="M21.08,24.91A49.68,49.68,0,0,1,19.24,30c-.67,1.65-1.42,3.25-2.21,4.83l-1.17-2c2.79-.16,5.58-.19,8.37-.12l2.62.06-1.36,2.15q-1.8,2.85-3.81,5.58c-.69.89-1.35,1.8-2.09,2.67s-1.46,1.74-2.27,2.57c.35-1.1.75-2.17,1.19-3.22s.9-2.07,1.36-3.1c1-2.05,2-4,3.11-6l1.25,2.21c-2.79.07-5.58,0-8.37-.11l-2.38-.13,1.21-1.88c1-1.49,1.94-3,3-4.38A45.77,45.77,0,0,1,21.08,24.91Z"/>
      <path class="cls-1" d="M26.91,3V6.76H13V3H26.91m.22-3H12.77A2.77,2.77,0,0,0,10,2.78v7H29.91v-7A2.77,2.77,0,0,0,27.13,0Z"/>
    </g>
  </g>
</svg>
