<svg xmlns="http://www.w3.org/2000/svg" viewBox="0 0 78.1 67">
  <defs>
    <style>
      .cls-1, .cls-2 {
        fill: none;
        stroke: #e3828a;
        stroke-miterlimit: 10;
        stroke-width: 3px;
      }

      .cls-2 {
        stroke-linecap: round;
      }
    </style>
  </defs>
  <title>icon</title>
  <g id="stroked_icons" data-name="stroked icons">
    <g>
      <path class="cls-1" d="M11.63,14.18a2.42,2.42,0,0,1-1.81-2.46A2.39,2.39,0,0,1,12,9.5c.26,0,11.6,0,17,0A1.2,1.2,0,0,0,30.12,9a7,7,0,0,1,3.16-2.31A1,1,0,0,0,34,5.86a5.39,5.39,0,0,1,10.58,0,.94.94,0,0,0,.7.81A7.13,7.13,0,0,1,48.44,9a1.2,1.2,0,0,0,1.11.52c5.42,0,16.75,0,17,0a2.38,2.38,0,0,1,2.18,2.21,2.42,2.42,0,0,1-1.87,2.49c-.14,0-17.21.06-23.64,0-.72,0-.88.22-.88.91q0,22,0,44c0,.7.17.94.89.91,1.37-.06,2.75,0,4.12,0a5.45,5.45,0,0,1,5.37,4.64c.09.56,0,.8-.63.8q-12.81,0-25.61,0c-.64,0-.74-.22-.64-.79a5.45,5.45,0,0,1,5.36-4.65c1.4,0,2.8,0,4.2,0,.65,0,.82-.18.82-.83q0-13.58,0-27.16V14.31C29.2,14.31,11.81,14.23,11.63,14.18Z"/>
      <line class="cls-2" x1="13.75" y1="14.22" x2="2.66" y2="32.87"/>
      <line class="cls-2" x1="13.26" y1="14.22" x2="24.34" y2="32.87"/>
      <path class="cls-2" d="M24.5,33.25A1.5,1.5,0,0,1,26,35,12.35,12.35,0,0,1,1.52,35,1.5,1.5,0,0,1,3,33.25Z"/>
      <line class="cls-2" x1="64.35" y1="14.22" x2="53.27" y2="32.87"/>
      <line class="cls-2" x1="63.86" y1="14.22" x2="74.95" y2="32.87"/>
      <path class="cls-2" d="M75.1,33.25A1.52,1.52,0,0,1,76.59,35a12.36,12.36,0,0,1-24.47,0,1.5,1.5,0,0,1,1.48-1.73Z"/>
    </g>
  </g>
</svg>
