<svg id="Layer_1" data-name="Layer 1" xmlns="http://www.w3.org/2000/svg" viewBox="0 0 56.46 63.72"><defs><style>.cls-1{fill:#e3828a;}</style></defs><title>allIcons</title><path class="cls-1" d="M13.45,43.93l0-2.24,8-7.6c1.53-1.51,2.32-3,2.34-4.34a3.5,3.5,0,0,0-1-2.66A3.81,3.81,0,0,0,20.07,26a3.68,3.68,0,0,0-2.67,1,4.45,4.45,0,0,0-1.31,2.35l-2.15-.4A5.77,5.77,0,0,1,16,25.61a6.24,6.24,0,0,1,4.14-1.35,6.61,6.61,0,0,1,4.26,1.51,4.78,4.78,0,0,1,1.65,4,5.67,5.67,0,0,1-.83,2.94,14.29,14.29,0,0,1-2.39,2.8l-7,6.58,10.08.18,0,1.92Z"/><path class="cls-1" d="M38.39,44.4,38.47,40l-9.11-.17,0-2.13L37.93,25.1l2.93.06-.24,13,2.85.06,0,1.81L40.59,40l-.09,4.45ZM31.47,38l7,.13.2-10.43h-.45Z"/><path class="cls-1" d="M28.91,63.72a29.51,29.51,0,1,1,1.19-59A29.11,29.11,0,0,1,41.72,7.36l4.39,2-2.5-8A1,1,0,0,1,44.29.05a.86.86,0,0,1,.32,0A1,1,0,0,1,45,.09a1,1,0,0,1,.55.63l2.85,9.13a2.3,2.3,0,0,1-1.27,2.79L38.4,16.49a.8.8,0,0,1-.43.09,1,1,0,0,1-.4-2l7.69-3.38-4.39-2A27.21,27.21,0,0,0,30.06,6.77,27.45,27.45,0,0,0,18.15,59.21,27.15,27.15,0,0,0,29,61.66h0A27.46,27.46,0,0,0,54.5,45.58a1,1,0,0,1,1-.61,1.17,1.17,0,0,1,.41.1,1,1,0,0,1,.51,1.36A29.53,29.53,0,0,1,28.91,63.72Z"/></svg>