<svg id="Layer_1" data-name="Layer 1" xmlns="http://www.w3.org/2000/svg" viewBox="0 0 51.45 64.75"><defs><style>.cls-1{fill:#e3828a;}</style></defs><title>allIcons</title><path class="cls-1" d="M6.21,49.9a.49.49,0,0,1,.5.49v12a.49.49,0,0,1-.5.49H2.57a.49.49,0,0,1-.5-.49v-12a.49.49,0,0,1,.5-.49H6.21m0-1.49H2.57a2,2,0,0,0-2,2v12a2,2,0,0,0,2,2H6.21a2,2,0,0,0,2-2v-12a2,2,0,0,0-2-2Z"/><path class="cls-1" d="M49.67,31.39v31.5H45V31.39h4.64m1.18-1.48h-7a.29.29,0,0,0-.3.3V64.08a.29.29,0,0,0,.3.29h7a.29.29,0,0,0,.3-.29V30.21a.29.29,0,0,0-.3-.3Z"/><path class="cls-1" d="M34.85,45.06a.5.5,0,0,1,.5.5V62.4a.49.49,0,0,1-.5.49H31.21a.49.49,0,0,1-.5-.49V45.56a.5.5,0,0,1,.5-.5h3.64m0-1.48H31.21a2,2,0,0,0-2,2V62.4a2,2,0,0,0,2,2h3.64a2,2,0,0,0,2-2V45.56a2,2,0,0,0-2-2Z"/><path class="cls-1" d="M20.53,37.85a.5.5,0,0,1,.5.5v24a.49.49,0,0,1-.5.49H16.89a.49.49,0,0,1-.5-.49v-24a.5.5,0,0,1,.5-.5h3.64m0-1.48H16.89a2,2,0,0,0-2,2v24a2,2,0,0,0,2,2h3.64a2,2,0,0,0,2-2v-24a2,2,0,0,0-2-2Z"/><path class="cls-1" d="M1,26.66a.72.72,0,0,1-.54-.23.74.74,0,0,1,0-1.05L18.61,8.19a.73.73,0,0,1,1,0L33.4,19.6,48.75,1.86H40.12a.74.74,0,0,1-.74-.74.75.75,0,0,1,.74-.75H50.37a.74.74,0,0,1,.56,1.23L34.05,21.12a.75.75,0,0,1-1,.08L19.15,9.71,1.55,26.46A.72.72,0,0,1,1,26.66Z"/><path class="cls-1" d="M50.37,11.11a.75.75,0,0,1-.74-.75V1.12a.75.75,0,0,1,.74-.75.76.76,0,0,1,.75.75v9.24A.76.76,0,0,1,50.37,11.11Z"/></svg>