<svg id="Layer_1" data-name="Layer 1" xmlns="http://www.w3.org/2000/svg" viewBox="0 0 52.27 65.5"><defs><style>.cls-1{fill:#e3828a;}</style></defs><title>allIcons</title><path class="cls-1" d="M22.55,33.1c-8.06,0-16.63-2.05-16.63-5.84s8.57-5.84,16.63-5.84A46.3,46.3,0,0,1,29.8,22a.74.74,0,0,1,.61.84.73.73,0,0,1-.84.61,44.68,44.68,0,0,0-7-.53c-8.68,0-15.17,2.31-15.17,4.37s6.49,4.37,15.17,4.37a43,43,0,0,0,8.13-.73.74.74,0,0,1,.86.58.73.73,0,0,1-.58.86A44.26,44.26,0,0,1,22.55,33.1Z"/><path class="cls-1" d="M34.82,31.24a.74.74,0,0,1-.27-1.42c2-.77,3.17-1.72,3.17-2.56s-1.14-1.76-3.06-2.52a.73.73,0,1,1,.55-1.36c3.28,1.31,4,2.83,4,3.88s-.71,2.61-4.09,3.93A.86.86,0,0,1,34.82,31.24Z"/><path class="cls-1" d="M22.55,37.54c-8.06,0-16.63-2-16.63-5.84V27.26a.73.73,0,1,1,1.46,0V31.7c0,2.07,6.49,4.37,15.17,4.37s15.17-2.3,15.17-4.37V27.26a.73.73,0,1,1,1.46,0V31.7C39.18,35.49,30.61,37.54,22.55,37.54Z"/><path class="cls-1" d="M26.77,38a46.11,46.11,0,0,1-7.33-.56A.73.73,0,0,1,19.68,36a44.15,44.15,0,0,0,7.09.55c8.68,0,15.17-2.31,15.17-4.37,0-.93-1.39-2-3.73-2.78A.73.73,0,0,1,38.69,28c3.09,1.07,4.72,2.51,4.72,4.16C43.41,36,34.84,38,26.77,38Z"/><path class="cls-1" d="M26.77,42.45c-8.06,0-16.63-2.05-16.63-5.84V35.17a.73.73,0,1,1,1.46,0v1.44c0,2.06,6.49,4.37,15.17,4.37s15.17-2.31,15.17-4.37V32.17a.74.74,0,1,1,1.47,0v4.44C43.41,40.4,34.84,42.45,26.77,42.45Z"/><path class="cls-1" d="M22.55,44.23c-8.06,0-16.63-2-16.63-5.84,0-1.1.75-2.7,4.36-4a.73.73,0,0,1,.94.43.72.72,0,0,1-.43.94c-2.13.79-3.41,1.79-3.41,2.66,0,2.06,6.49,4.37,15.17,4.37,6.06,0,11.58-1.12,14-2.85a.73.73,0,0,1,1,.18.72.72,0,0,1-.17,1C34.7,43,29,44.23,22.55,44.23Z"/><path class="cls-1" d="M22.55,48.67c-8.06,0-16.63-2-16.63-5.84V38.39a.73.73,0,1,1,1.46,0v4.44c0,2.07,6.49,4.38,15.17,4.38s15.17-2.31,15.17-4.38V40.15a.73.73,0,1,1,1.46,0v2.68C39.18,46.63,30.61,48.67,22.55,48.67Z"/><path class="cls-1" d="M38.45,40.89a.74.74,0,0,1-.73-.74.77.77,0,0,1,.73-.77.69.69,0,0,1,.73.69v.08A.73.73,0,0,1,38.45,40.89Z"/><path class="cls-1" d="M26.77,49.14a45,45,0,0,1-7.33-.57.73.73,0,1,1,.24-1.44,44.36,44.36,0,0,0,7.09.54c8.68,0,15.17-2.31,15.17-4.37,0-.87-1.25-1.85-3.34-2.63a.74.74,0,0,1-.43-1,.73.73,0,0,1,.94-.43c3.55,1.33,4.3,2.92,4.3,4C43.41,47.09,34.84,49.14,26.77,49.14Z"/><path class="cls-1" d="M26.77,53.58c-8.06,0-16.63-2-16.63-5.84V46.3a.73.73,0,1,1,1.46,0v1.44c0,2.06,6.49,4.37,15.17,4.37s15.17-2.31,15.17-4.37V43.3a.74.74,0,1,1,1.47,0v4.44C43.41,51.53,34.84,53.58,26.77,53.58Z"/><path class="cls-1" d="M22.55,55.4c-8.06,0-16.63-2-16.63-5.84,0-1.1.75-2.69,4.36-4a.74.74,0,0,1,.51,1.38c-2.13.79-3.41,1.78-3.41,2.65,0,2.07,6.49,4.38,15.17,4.38,6.06,0,11.58-1.12,14-2.85a.72.72,0,0,1,1,.18.73.73,0,0,1-.17,1C34.7,54.21,29,55.4,22.55,55.4Z"/><path class="cls-1" d="M22.55,59.84c-8.06,0-16.63-2-16.63-5.83V49.56a.73.73,0,0,1,1.46,0V54c0,2.06,6.49,4.37,15.17,4.37S37.72,56.07,37.72,54V51.33a.73.73,0,1,1,1.46,0V54C39.18,57.8,30.61,59.84,22.55,59.84Z"/><path class="cls-1" d="M38.45,52.06a.73.73,0,0,1-.73-.73.77.77,0,0,1,.73-.78.7.7,0,0,1,.73.7v.08A.73.73,0,0,1,38.45,52.06Z"/><path class="cls-1" d="M26.77,60.31a44.85,44.85,0,0,1-7.33-.57.73.73,0,0,1,.24-1.44,44.18,44.18,0,0,0,7.09.54c8.68,0,15.17-2.31,15.17-4.37,0-.86-1.25-1.85-3.34-2.63a.73.73,0,0,1-.43-.94.72.72,0,0,1,.94-.43c3.55,1.33,4.3,2.91,4.3,4C43.41,58.26,34.84,60.31,26.77,60.31Z"/><path class="cls-1" d="M26.77,64.75c-8.06,0-16.63-2-16.63-5.84V57.47a.73.73,0,0,1,1.46,0v1.44c0,2.07,6.49,4.37,15.17,4.37S41.94,61,41.94,58.91V54.47a.74.74,0,0,1,1.47,0v4.44C43.41,62.7,34.84,64.75,26.77,64.75Z"/><path class="cls-1" d="M32.28,32.82A3.38,3.38,0,0,1,29,29.4V20.2H20.07a3.42,3.42,0,0,1,0-6.83H29V4.17a3.34,3.34,0,1,1,6.67,0v9.2h8.87a3.42,3.42,0,0,1,0,6.83H35.62v9.2A3.38,3.38,0,0,1,32.28,32.82Zm-12.21-18a2,2,0,0,0,0,3.91H30.42V29.4a1.87,1.87,0,1,0,3.73,0V18.74H44.49a2,2,0,0,0,0-3.91H34.15V4.17a1.87,1.87,0,1,0-3.73,0V14.83Z"/><path class="cls-1" d="M4,26.28a.48.48,0,0,1,.47.49v1.78H6.18a.48.48,0,0,1,.47.48.47.47,0,0,1-.47.48H4.46V31.3a.47.47,0,1,1-.94,0V29.51H1.8A.47.47,0,0,1,1.33,29a.48.48,0,0,1,.47-.48H3.52V26.77A.48.48,0,0,1,4,26.28m0-.73a1.21,1.21,0,0,0-1.2,1.22v1.05h-1a1.22,1.22,0,0,0,0,2.43h1V31.3a1.2,1.2,0,1,0,2.4,0V30.25h1a1.22,1.22,0,0,0,0-2.43h-1V26.77A1.21,1.21,0,0,0,4,25.55Z"/><path class="cls-1" d="M47.09,28.19a.69.69,0,0,1,.68.7v2.58h2.5a.7.7,0,0,1,0,1.39h-2.5v2.59a.68.68,0,1,1-1.35,0V32.86h-2.5a.7.7,0,0,1,0-1.39h2.5V28.89a.68.68,0,0,1,.67-.7m0-.73a1.42,1.42,0,0,0-1.4,1.43v1.85H43.92a1.43,1.43,0,0,0,0,2.86h1.77v1.85a1.41,1.41,0,1,0,2.81,0V33.6h1.77a1.43,1.43,0,0,0,0-2.86H48.5V28.89a1.42,1.42,0,0,0-1.41-1.43Z"/><path class="cls-1" d="M8.12,10.91a.88.88,0,0,1,.87.9v3.3h3.2a.9.9,0,0,1,0,1.8H9v3.3a.87.87,0,1,1-1.73,0v-3.3H4.05a.9.9,0,0,1,0-1.8H7.26v-3.3a.88.88,0,0,1,.86-.9m0-.73a1.62,1.62,0,0,0-1.6,1.63v2.57H4.05a1.63,1.63,0,0,0,0,3.26H6.52v2.57a1.6,1.6,0,1,0,3.2,0V17.64h2.47a1.63,1.63,0,0,0,0-3.26H9.72V11.81a1.62,1.62,0,0,0-1.6-1.63Z"/></svg>