<svg xmlns="http://www.w3.org/2000/svg" viewBox="0 0 69.59 67">
  <defs>
    <style>
      .cls-1 {
        fill: none;
        stroke: #e3828a;
        stroke-miterlimit: 10;
        stroke-width: 3px;
      }

      .cls-2 {
        fill: #e3828a;
      }
    </style>
  </defs>
  <title>icon-14</title>
  <g id="stroked_icons" data-name="stroked icons">
    <g>
      <path class="cls-1" d="M68.09,21.27c0,2.28-2.12,4.34-5.1,4.34-.54,0-1.08,0-1.62,0-.06.26-.1.47-.14.68a3.55,3.55,0,0,1-3.46,2.89q-4.64,0-9.29,0c-1.92,0-3.21-1.29-3.62-3.57H43.4a5.07,5.07,0,0,1-5.24-5.25q0-6.27,0-12.55a5,5,0,0,1,5.17-5.16q9.75,0,19.5,0c2.64,0,5,1.16,5.15,4.07C68,6.81,68.09,16.5,68.09,21.27Z"/>
      <path class="cls-1" d="M44.79,53.65c0-2.49,0-5,0-7.47a4,4,0,0,1,4.32-4.35h8.06a4,4,0,0,1,4.28,4.27q0,7.57,0,15.14a4,4,0,0,1-4.23,4.25q-4.09,0-8.19,0a4,4,0,0,1-4.24-4.23C44.78,58.72,44.79,56.19,44.79,53.65Z"/>
      <path class="cls-1" d="M21.23,47.29a6.24,6.24,0,0,1,9.5,5.85,6.63,6.63,0,0,1-5.18,5.72,7.77,7.77,0,0,1-1.16.13C18.6,59,12.82,59,7,59a5.39,5.39,0,1,1-.15-10.78.61.61,0,0,0,.69-.48,6.94,6.94,0,0,1,6.22-4.87,7,7,0,0,1,7.18,4c.05.1.09.2.14.29S21.18,47.24,21.23,47.29Z"/>
      <path class="cls-1" d="M15.09,28.66H10.6a3.93,3.93,0,0,1-4.28-4,8.75,8.75,0,0,1,17.32-2.34,9.93,9.93,0,0,1,0,3,3.74,3.74,0,0,1-3.84,3.28C18.25,28.68,16.67,28.66,15.09,28.66Z"/>
      <path class="cls-1" d="M8.86,7.72a6.2,6.2,0,1,1,6.24,6.15A6.18,6.18,0,0,1,8.86,7.72Z"/>
      <path class="cls-2" d="M51.62,35.82c0-.36,0-.72,0-1.07a1.55,1.55,0,0,1,1.47-1.57,1.51,1.51,0,0,1,1.5,1.48,21.87,21.87,0,0,1,0,2.29,1.47,1.47,0,0,1-1.52,1.48,1.54,1.54,0,0,1-1.45-1.58Z"/>
      <path class="cls-2" d="M13.4,35.82c0-.36,0-.72,0-1.07a1.53,1.53,0,0,1,1.46-1.57,1.51,1.51,0,0,1,1.5,1.48c0,.76,0,1.53,0,2.29a1.49,1.49,0,0,1-1.53,1.48,1.53,1.53,0,0,1-1.44-1.58C13.4,36.5,13.4,36.16,13.4,35.82Z"/>
      <path class="cls-2" d="M38.36,52h1A1.54,1.54,0,0,1,41,53.45,1.48,1.48,0,0,1,39.48,55a22.44,22.44,0,0,1-2.32,0,1.5,1.5,0,0,1-1.46-1.52A1.55,1.55,0,0,1,37.25,52Z"/>
      <path class="cls-2" d="M30,16.36c-.37,0-.73,0-1.1,0a1.5,1.5,0,1,1,0-3h2.18a1.53,1.53,0,0,1,1.53,1.47,1.51,1.51,0,0,1-1.5,1.52C30.77,16.37,30.38,16.36,30,16.36Z"/>
      <rect class="cls-1" x="43.94" y="7.49" width="18.5" height="13.16" rx="3"/>
    </g>
    <circle class="cls-2" cx="53.19" cy="61.18" r="1.5"/>
  </g>
</svg>
