<svg id="Layer_1" data-name="Layer 1" xmlns="http://www.w3.org/2000/svg" viewBox="0 0 38.62 64.75"><defs><style>.cls-1{fill:#e3828a;}</style></defs><title>allIcons</title><path class="cls-1" d="M8.33,1.75h0m10.08,1a11.11,11.11,0,0,1,1.86,1.65,11,11,0,0,1-.22,14.82,10.32,10.32,0,0,1-15.11,0A11,11,0,0,1,4.73,4.39,10.67,10.67,0,0,1,6.58,2.74V8.33A5.5,5.5,0,0,0,12,13.87h1a5.5,5.5,0,0,0,5.44-5.54V2.74M17.17.37a.25.25,0,0,0-.24.25V8.33a4,4,0,0,1-4,4.05H12a4,4,0,0,1-4-4.05V.62A.25.25,0,0,0,7.82.37l-.1,0a12.05,12.05,0,0,0-4.1,3,12.47,12.47,0,0,0,.24,16.83,11.82,11.82,0,0,0,17.27,0A12.46,12.46,0,0,0,21.37,3.4a12.05,12.05,0,0,0-4.1-3,.19.19,0,0,0-.1,0Z"/><path class="cls-1" d="M6.23,31a.76.76,0,0,1-.75-.75V22.09a.75.75,0,0,1,1.49,0v8.19A.75.75,0,0,1,6.23,31Z"/><path class="cls-1" d="M18.49,25.26a.74.74,0,0,1-.74-.74V22.27a.74.74,0,1,1,1.48,0v2.25A.74.74,0,0,1,18.49,25.26Z"/><path class="cls-1" d="M7.12,36.06H3.48a3.26,3.26,0,1,1,0-6.52H7.12a3.26,3.26,0,0,1,0,6.52ZM3.48,31a1.78,1.78,0,0,0,0,3.55H7.12a1.78,1.78,0,1,0,0-3.55Z"/><path class="cls-1" d="M8.7,41.1H3.48a3.26,3.26,0,1,1,0-6.52H8.7a3.26,3.26,0,1,1,0,6.52Zm-5.22-5a1.78,1.78,0,0,0,0,3.56H8.7a1.78,1.78,0,1,0,0-3.56Z"/><path class="cls-1" d="M8.09,46.14H3.48a3.26,3.26,0,0,1,0-6.52H8.09a3.26,3.26,0,0,1,0,6.52Zm-4.61-5a1.78,1.78,0,0,0,0,3.56H8.09a1.78,1.78,0,1,0,0-3.56Z"/><path class="cls-1" d="M6.85,50.88H3.34a3.11,3.11,0,1,1,0-6.22H6.85a3.11,3.11,0,0,1,0,6.22ZM3.34,46.14a1.63,1.63,0,0,0,0,3.26H6.85a1.63,1.63,0,1,0,0-3.26Z"/><path class="cls-1" d="M12.36,64.37a7,7,0,0,1-6.88-7V50.14a.75.75,0,0,1,1.49,0v7.21a5.47,5.47,0,0,0,5.39,5.54,5.47,5.47,0,0,0,5.39-5.54v-25L16.6,31H13.3a3.63,3.63,0,0,1,0-7.26h4.94a2,2,0,0,1,1.41.6l7.92,8.09H37.65a.74.74,0,0,1,.74.74V47a2.19,2.19,0,0,1-2.18,2.21h-17v8.16A7,7,0,0,1,12.36,64.37Zm6.87-16.66h17a.72.72,0,0,0,.7-.73v-13H27.25a.75.75,0,0,1-.53-.22l-8.13-8.31a.47.47,0,0,0-.35-.15H13.3a2.14,2.14,0,0,0,0,4.28h3.63a.73.73,0,0,1,.55.25l1.57,1.76a.72.72,0,0,1,.18.49Z"/><path class="cls-1" d="M12.36,60.78a3.55,3.55,0,1,1,3.48-3.55A3.52,3.52,0,0,1,12.36,60.78Zm0-5.61a2.07,2.07,0,1,0,2,2.06A2,2,0,0,0,12.36,55.17Z"/></svg>