<svg id="Layer_1" data-name="Layer 1" xmlns="http://www.w3.org/2000/svg" viewBox="0 0 50.24 64"><defs><style>.cls-1{fill:#e3828a;}</style></defs><title>allIcons</title><path class="cls-1" d="M27.68,64a.74.74,0,0,1-.61-.31,1.81,1.81,0,0,1-.2-.39c-.13-.31-.25-.63-.38-.95s-.33-.84-.51-1.26a5.13,5.13,0,0,0-1.34-1.81,3.07,3.07,0,0,0-1.78-.82h-.27a2.82,2.82,0,0,0-1.19.27,3.93,3.93,0,0,0-.52.29,16.21,16.21,0,0,0-3.44,2.93,6.65,6.65,0,0,1-.49.53.93.93,0,0,1-.67.31.76.76,0,0,1-.72-1,.89.89,0,0,1,.18-.35A18.94,18.94,0,0,1,19,58.36a12.26,12.26,0,0,1,1.58-1,4.29,4.29,0,0,1,2-.51,4.81,4.81,0,0,1,1.73.35,5.29,5.29,0,0,1,2.43,1.93,10.87,10.87,0,0,1,1.53,3.07c.1.28.17.52.23.74s0,.17,0,.26v.06A.79.79,0,0,1,28,64,1,1,0,0,1,27.68,64Zm7.68-2.2h0a1.84,1.84,0,0,1-.68-.35,17.78,17.78,0,0,1-3.32-3.15A11.46,11.46,0,0,1,29,53.52a9.12,9.12,0,0,1,.71-5.9l.14-.24a.78.78,0,0,1,.77-.37h.05a.68.68,0,0,1,.43.24.85.85,0,0,1,.25.51,1,1,0,0,1-.09.3,9,9,0,0,0-.77,2.33A7.55,7.55,0,0,0,31,54.68a11.3,11.3,0,0,0,2.49,3.61c.46.45,1,.87,1.41,1.28l.65.57.07.06a2.51,2.51,0,0,1,.23.21.83.83,0,0,1,.23.81.9.9,0,0,1-.67.58ZM9.15,61a.89.89,0,0,1-.3-.06.86.86,0,0,1-.46-.52.71.71,0,0,1,.11-.62,1.66,1.66,0,0,1,.32-.33L11,57.76l2.45-1.91a93.33,93.33,0,0,0,7.73-6.74,56.54,56.54,0,0,0,6.32-7.2A21.77,21.77,0,0,0,30.26,37a8.29,8.29,0,0,0,.59-2.57,7.72,7.72,0,0,0-.82-3.9,6.23,6.23,0,0,0-1.45-2A5.33,5.33,0,0,0,25,27.1a6,6,0,0,0-2.29.48,6.85,6.85,0,0,0-3.41,3.11c-.23.42-.44.85-.63,1.26-.09.19-.18.37-.26.55A36.29,36.29,0,0,1,15.15,38a29,29,0,0,1-4.81,5c-1.21,1-2.52,2-3.78,2.9l-.36.26L3.32,48.24,1.38,49.65a1,1,0,0,1-.59.22l-.22,0a.77.77,0,0,1-.51-.46.73.73,0,0,1,.05-.67,1.42,1.42,0,0,1,.41-.4L1,48l3.89-2.84.85-.62,0,0c1-.69,1.94-1.41,2.9-2.16a28.32,28.32,0,0,0,7.81-9.54c.22-.44.43-.89.63-1.32.08-.17.15-.33.23-.49a10.67,10.67,0,0,1,2-2.95,7.73,7.73,0,0,1,4.42-2.32,13.24,13.24,0,0,1,2.05-.16H26a4.38,4.38,0,0,1,1.83.48,7.66,7.66,0,0,1,3,2.71,9.4,9.4,0,0,1,1.53,4,7.51,7.51,0,0,1,.07.84l0,.38a10.87,10.87,0,0,1-.9,4.06,23.9,23.9,0,0,1-2.64,4.66,49.69,49.69,0,0,1-4.26,5.14A90.43,90.43,0,0,1,16,55.9c-1.87,1.55-3.93,3.15-6.28,4.88A.93.93,0,0,1,9.15,61Zm34.33-3.58h-.12a1,1,0,0,1-.22,0,10.53,10.53,0,0,1-4.35-2.55,10.36,10.36,0,0,1-2.3-3.42,18.78,18.78,0,0,1-1.36-5,13.29,13.29,0,0,1,0-3.5c.2-1.48.47-3,.73-4.45l.19-1.07c.21-1.16.42-2.33.53-3.52a13.19,13.19,0,0,0-.16-4.28,10.38,10.38,0,0,0-2.66-5,12.59,12.59,0,0,0-5.7-3.53,11.53,11.53,0,0,0-3.2-.47,11.65,11.65,0,0,0-5.58,1.48,14.2,14.2,0,0,0-3.83,3.1,17.24,17.24,0,0,0-3,4.69A18.67,18.67,0,0,1,9.16,35,32.76,32.76,0,0,1,5,38.87a38.74,38.74,0,0,1-3.63,2.58,1,1,0,0,1-.52.18h0A.76.76,0,0,1,0,41a.74.74,0,0,1,.29-.74L.62,40l0,0L2,39l2.69-2A23.5,23.5,0,0,0,8,34a16.73,16.73,0,0,0,2.84-4.32A23.35,23.35,0,0,1,13,25.78a16.4,16.4,0,0,1,4.88-4.71,13.76,13.76,0,0,1,4.95-1.88A14.49,14.49,0,0,1,25.26,19a13.18,13.18,0,0,1,8,3,13.72,13.72,0,0,1,3.29,3.64,11,11,0,0,1,1.56,4.45v.08c.08.64.16,1.3.19,1.94a8.8,8.8,0,0,1-.05,1.35,56.33,56.33,0,0,1-1,5.93l-.07.32a35.41,35.41,0,0,0-.56,3.55,15.14,15.14,0,0,0,.07,3.22,15.52,15.52,0,0,0,1.38,4.72A8.35,8.35,0,0,0,43,55.6l.22.08.58.22a.78.78,0,0,1,.38,1.21A.8.8,0,0,1,43.48,57.42ZM3.94,56.6a.78.78,0,0,1-.75-.66.75.75,0,0,1,.27-.73L3.71,55l1.66-1.26,0,0C6.6,52.82,7.83,51.89,9,51a69.82,69.82,0,0,0,6.45-5.78,54.53,54.53,0,0,0,6.43-7.75,23.62,23.62,0,0,0,2.29-4.12.79.79,0,0,1,.74-.5h0a.84.84,0,0,1,.75.6.31.31,0,0,1,0,.21A9.47,9.47,0,0,1,25,35.34l0,.06a31.81,31.81,0,0,1-3.14,4.86,62.48,62.48,0,0,1-7.53,8.25,95,95,0,0,1-9.77,7.87A.93.93,0,0,1,4,56.6Zm43.07-4a.41.41,0,0,1-.31-.12,19.06,19.06,0,0,1-3.42-3.79,11.37,11.37,0,0,1-1.69-4.1,7.62,7.62,0,0,1-.12-2.31c.11-1,.26-2.1.4-3.12l.05-.33c.09-.71.2-1.41.3-2.11.08-.5.15-1,.21-1.45.11-.76.24-1.63.35-2.48a17.66,17.66,0,0,0,.15-3.74,10.68,10.68,0,0,0-.88-3.47,19.45,19.45,0,0,0-6.31-8,17.36,17.36,0,0,0-6.39-2.84,19.53,19.53,0,0,0-3.28-.43l-.43,0c-.33,0-.66-.05-1-.05h-.17a16.85,16.85,0,0,0-11.63,4.87,27.55,27.55,0,0,0-3.77,4.69c-.31.49-.64,1-1,1.66a21.94,21.94,0,0,1-3.31,4.34,17.07,17.07,0,0,1-2.92,2.4,5.06,5.06,0,0,1-.63.36.74.74,0,0,1-.36.09.78.78,0,0,1-.68-.4.76.76,0,0,1,.27-1A17.89,17.89,0,0,0,3.34,29a19,19,0,0,0,3.07-3.9c.82-1.33,1.7-2.75,2.7-4.09a23,23,0,0,1,4.74-4.8,17.15,17.15,0,0,1,7.21-3.12,21.74,21.74,0,0,1,4-.37h.07a19.87,19.87,0,0,1,8.76,2,19.25,19.25,0,0,1,7.54,6.49,20.54,20.54,0,0,1,2.81,5.9,9.28,9.28,0,0,1,.32,3.62c-.13,1.24-.29,2.51-.45,3.74l-.09.67-.3,2.28,0,.12c-.14,1-.27,2-.4,3-.09.67-.14,1.37-.18,2l0,.27A6.71,6.71,0,0,0,43.63,46a12.11,12.11,0,0,0,2.11,3.3c.38.43.78.85,1.17,1.25l.51.52.11.12.14.14a.73.73,0,0,1,.13.73.82.82,0,0,1-.62.56A.52.52,0,0,1,47,52.62Zm1.26-7.13a1.18,1.18,0,0,1-.25,0,.71.71,0,0,1-.55-.7,2.05,2.05,0,0,1,0-.37c.33-1.48.56-2.7.71-3.84.13-.93.23-1.86.3-2.64a31.76,31.76,0,0,0,.13-4.34,24.4,24.4,0,0,0-1-6.84c-.13-.41-.29-.82-.44-1.2l-.07-.2a.84.84,0,0,1,0-.69.73.73,0,0,1,.67-.49h.11a.68.68,0,0,1,.6.35,1.67,1.67,0,0,1,.12.23,14.7,14.7,0,0,1,1,3.18,30.58,30.58,0,0,1,.67,5.86v.89c0,1.29-.06,2.57-.18,3.79a51.24,51.24,0,0,1-1,6.22,1.29,1.29,0,0,1-.18.49A.71.71,0,0,1,48.27,45.49ZM1.56,23a.76.76,0,0,1-.63-.34.78.78,0,0,1,0-.82c.39-.63.79-1.26,1.22-1.93A42.91,42.91,0,0,1,6,14.76a26.94,26.94,0,0,1,4.75-4.29A22.76,22.76,0,0,1,18.2,7.16a30.23,30.23,0,0,1,4.29-.71c.88-.08,1.77-.13,2.64-.13.6,0,1.2,0,1.78.06A24.77,24.77,0,0,1,36,8.75,31,31,0,0,1,47.26,18a4.89,4.89,0,0,1,.59,1,.61.61,0,0,0,0,.14.81.81,0,0,1-.57.68l-.24,0a.78.78,0,0,1-.64-.36A30.09,30.09,0,0,0,39.93,13a25.47,25.47,0,0,0-8.52-4.23A22.71,22.71,0,0,0,27.22,8c-.65,0-1.32-.08-2-.08-.85,0-1.74,0-2.65.13a24.61,24.61,0,0,0-6.15,1.32,21.42,21.42,0,0,0-7.79,4.93A38.88,38.88,0,0,0,5,18.62c-1,1.27-1.84,2.6-2.65,3.93a.74.74,0,0,1-.52.42ZM4,10.58a.75.75,0,0,1-.66-.38.74.74,0,0,1,0-.76,1.59,1.59,0,0,1,.18-.27A18.19,18.19,0,0,1,6.3,6.33,26.94,26.94,0,0,1,17.81.82,29.42,29.42,0,0,1,21.64.25l1-.09L24.51,0a1.22,1.22,0,0,0,.43.08H25A32.52,32.52,0,0,1,29.2.35a31.18,31.18,0,0,1,14.92,6L45,7a3.67,3.67,0,0,1,.34.32.76.76,0,0,1,0,1,.75.75,0,0,1-.6.3,1,1,0,0,1-.33-.07l-.27-.16-.78-.58-1-.73a28.19,28.19,0,0,0-9.77-4.5,30.66,30.66,0,0,0-4.47-.76C27,1.71,25.83,1.65,25,1.65h-.06a29.57,29.57,0,0,0-9.5,1.46,24.49,24.49,0,0,0-7.7,4.12,19.9,19.9,0,0,0-3.07,3,.79.79,0,0,1-.69.36Z"/><path class="cls-1" d="M47,52.62a.41.41,0,0,1-.31-.12,19.06,19.06,0,0,1-3.42-3.79,11.37,11.37,0,0,1-1.69-4.1,7.62,7.62,0,0,1-.12-2.31c.11-1,.26-2.1.4-3.12l.05-.33c.09-.71.2-1.41.3-2.11.08-.5.15-1,.21-1.45.13-.87.24-1.66.35-2.48a17.66,17.66,0,0,0,.15-3.74,10.68,10.68,0,0,0-.88-3.47,19.45,19.45,0,0,0-6.31-8,17.36,17.36,0,0,0-6.39-2.84,19.53,19.53,0,0,0-3.28-.43l-.43,0c-.33,0-.66-.05-1-.05h-.17a16.85,16.85,0,0,0-11.63,4.87,27.55,27.55,0,0,0-3.77,4.69c-.31.49-.64,1-1,1.66a21.94,21.94,0,0,1-3.31,4.34,17.07,17.07,0,0,1-2.92,2.4,5.06,5.06,0,0,1-.63.36.74.74,0,0,1-.36.09.78.78,0,0,1-.68-.4.76.76,0,0,1,.27-1A17.89,17.89,0,0,0,3.34,29a19,19,0,0,0,3.07-3.9c.82-1.33,1.7-2.75,2.7-4.09a23,23,0,0,1,4.74-4.8,17.15,17.15,0,0,1,7.21-3.12,21.74,21.74,0,0,1,4-.37h.07a19.87,19.87,0,0,1,8.76,2,19.25,19.25,0,0,1,7.54,6.49,20.54,20.54,0,0,1,2.81,5.9,9.28,9.28,0,0,1,.32,3.62c-.13,1.26-.29,2.54-.46,3.78L44,35.1l-.3,2.28,0,.11c-.14,1-.27,2-.4,3-.08.67-.14,1.34-.18,2l0,.27A6.71,6.71,0,0,0,43.63,46a12.11,12.11,0,0,0,2.11,3.3c.38.43.78.84,1.17,1.24l.51.53.11.12a1.85,1.85,0,0,1,.14.14.73.73,0,0,1,.13.73.82.82,0,0,1-.62.56A.52.52,0,0,1,47,52.62Z"/><path class="cls-1" d="M9.15,61a.89.89,0,0,1-.3-.06.86.86,0,0,1-.46-.52.71.71,0,0,1,.11-.62,1.66,1.66,0,0,1,.32-.33L11,57.76l0,0,2.42-1.88a93.33,93.33,0,0,0,7.73-6.74,56.54,56.54,0,0,0,6.32-7.2A21.77,21.77,0,0,0,30.26,37a8.29,8.29,0,0,0,.59-2.56A7.74,7.74,0,0,0,30,30.51a6.23,6.23,0,0,0-1.45-2A5.33,5.33,0,0,0,25,27.1a6,6,0,0,0-2.29.48,6.85,6.85,0,0,0-3.41,3.11c-.23.42-.44.85-.63,1.26-.1.2-.18.38-.26.55A36.29,36.29,0,0,1,15.15,38a29,29,0,0,1-4.81,5c-1.21,1-2.52,2-3.79,2.9l-.35.26L3.32,48.24,1.38,49.65a1,1,0,0,1-.59.22l-.22,0a.77.77,0,0,1-.51-.46.73.73,0,0,1,.05-.67,1.42,1.42,0,0,1,.41-.4L1,48l3.88-2.83.9-.66c1-.69,2-1.42,2.9-2.16a28.32,28.32,0,0,0,7.81-9.54c.22-.43.42-.87.62-1.3l.24-.51a10.67,10.67,0,0,1,2-2.95,7.73,7.73,0,0,1,4.42-2.32,13.24,13.24,0,0,1,2.05-.16H26a4.38,4.38,0,0,1,1.83.48,7.66,7.66,0,0,1,3,2.71,9.4,9.4,0,0,1,1.53,4,7.51,7.51,0,0,1,.07.84l0,.38a10.87,10.87,0,0,1-.9,4.06,23.9,23.9,0,0,1-2.64,4.66,49.69,49.69,0,0,1-4.26,5.14A91.64,91.64,0,0,1,16,55.9c-1.88,1.55-3.93,3.15-6.28,4.88A.93.93,0,0,1,9.15,61Z"/><path class="cls-1" d="M43.48,57.42h-.12a1,1,0,0,1-.22,0,10.53,10.53,0,0,1-4.35-2.55,10.36,10.36,0,0,1-2.3-3.42,18.78,18.78,0,0,1-1.36-5,13.29,13.29,0,0,1,0-3.5c.2-1.48.47-3,.73-4.44l.19-1.08c.21-1.15.42-2.33.53-3.52a13.19,13.19,0,0,0-.16-4.28,10.38,10.38,0,0,0-2.66-5,12.59,12.59,0,0,0-5.7-3.53,11.21,11.21,0,0,0-8.78,1,14.2,14.2,0,0,0-3.83,3.1,17.24,17.24,0,0,0-3,4.69A18.67,18.67,0,0,1,9.16,35,32.76,32.76,0,0,1,5,38.87a38.74,38.74,0,0,1-3.63,2.58,1,1,0,0,1-.52.18h0A.76.76,0,0,1,0,41a.74.74,0,0,1,.29-.74L.62,40l0,0L2,39l2.69-2A23.5,23.5,0,0,0,8,34a16.73,16.73,0,0,0,2.84-4.32A23.35,23.35,0,0,1,13,25.78a16.4,16.4,0,0,1,4.88-4.71,13.76,13.76,0,0,1,4.95-1.88A14.49,14.49,0,0,1,25.26,19a13.18,13.18,0,0,1,8,3,13.72,13.72,0,0,1,3.29,3.64,11,11,0,0,1,1.56,4.45v.08c.08.64.16,1.3.19,1.94a8.8,8.8,0,0,1-.05,1.35,56.33,56.33,0,0,1-1,5.93l-.07.32a35.41,35.41,0,0,0-.56,3.55,15.14,15.14,0,0,0,.07,3.22,15.52,15.52,0,0,0,1.38,4.72A8.32,8.32,0,0,0,43,55.6l.22.08.58.22a.78.78,0,0,1,.38,1.21A.8.8,0,0,1,43.48,57.42Z"/><path class="cls-1" d="M1.56,23a.76.76,0,0,1-.63-.34.78.78,0,0,1,0-.82c.38-.63.78-1.26,1.22-1.93A42.12,42.12,0,0,1,6,14.76a26.94,26.94,0,0,1,4.75-4.29A22.76,22.76,0,0,1,18.2,7.16a30.23,30.23,0,0,1,4.29-.71c.88-.08,1.77-.13,2.64-.13.6,0,1.2,0,1.78.06A24.77,24.77,0,0,1,36,8.75,31,31,0,0,1,47.26,18a4.89,4.89,0,0,1,.59,1,.61.61,0,0,0,0,.14.81.81,0,0,1-.57.68l-.24,0a.78.78,0,0,1-.64-.36A30.09,30.09,0,0,0,39.93,13a25.47,25.47,0,0,0-8.52-4.23A22.71,22.71,0,0,0,27.22,8c-.65,0-1.32-.08-2-.08-.85,0-1.74,0-2.65.13a24.61,24.61,0,0,0-6.15,1.32,21.42,21.42,0,0,0-7.79,4.93A38.88,38.88,0,0,0,5,18.62c-1,1.27-1.84,2.6-2.65,3.93a.74.74,0,0,1-.52.42Z"/><path class="cls-1" d="M4,10.58a.75.75,0,0,1-.66-.38.74.74,0,0,1,0-.76,1.59,1.59,0,0,1,.18-.27A18.19,18.19,0,0,1,6.3,6.33,26.94,26.94,0,0,1,17.81.82,29.42,29.42,0,0,1,21.64.25c.92-.08,3.28-.17,3.42-.18A34.41,34.41,0,0,1,29.2.35a31.18,31.18,0,0,1,14.92,6L45,7a3.67,3.67,0,0,1,.34.32.76.76,0,0,1,0,1,.75.75,0,0,1-.6.3,1,1,0,0,1-.33-.07l-.27-.16-.69-.52-.1-.07-1-.72a28.19,28.19,0,0,0-9.77-4.5,31.82,31.82,0,0,0-4.47-.76C27,1.71,25.83,1.65,25,1.65h-.06a29.57,29.57,0,0,0-9.5,1.46,24.49,24.49,0,0,0-7.7,4.12,19.9,19.9,0,0,0-3.07,3,.79.79,0,0,1-.69.36Z"/><path class="cls-1" d="M3.94,56.6a.78.78,0,0,1-.75-.66.75.75,0,0,1,.27-.73L3.71,55l1.67-1.26C6.57,52.84,7.81,51.9,9,51a69.82,69.82,0,0,0,6.45-5.78,54.53,54.53,0,0,0,6.43-7.75,23.62,23.62,0,0,0,2.29-4.12.79.79,0,0,1,.74-.5h0a.84.84,0,0,1,.75.6.31.31,0,0,1,0,.21A9.47,9.47,0,0,1,25,35.34l0,.06a31.81,31.81,0,0,1-3.14,4.86,61.86,61.86,0,0,1-7.53,8.25,95,95,0,0,1-9.77,7.87A.93.93,0,0,1,4,56.6Z"/><path class="cls-1" d="M48.27,45.49a1.18,1.18,0,0,1-.25,0,.71.71,0,0,1-.55-.7,2.05,2.05,0,0,1,0-.37c.33-1.48.56-2.7.71-3.84.13-.93.23-1.86.3-2.64a31.76,31.76,0,0,0,.13-4.34,24.4,24.4,0,0,0-1-6.84c-.13-.42-.29-.82-.44-1.21l-.07-.19a.84.84,0,0,1,0-.69.73.73,0,0,1,.67-.49h.11a.68.68,0,0,1,.6.35,1.67,1.67,0,0,1,.12.23,14.7,14.7,0,0,1,1,3.18,30.58,30.58,0,0,1,.67,5.86v.89c0,1.29-.06,2.57-.18,3.79a51.24,51.24,0,0,1-1,6.22,1.29,1.29,0,0,1-.18.49A.71.71,0,0,1,48.27,45.49Z"/><path class="cls-1" d="M27.68,64a.74.74,0,0,1-.61-.31,1.81,1.81,0,0,1-.2-.39c-.13-.31-.25-.63-.38-.95s-.33-.84-.51-1.26a5.13,5.13,0,0,0-1.34-1.81,3.07,3.07,0,0,0-1.78-.82h-.27a2.82,2.82,0,0,0-1.19.27,3.93,3.93,0,0,0-.52.29,16.21,16.21,0,0,0-3.44,2.93,6.65,6.65,0,0,1-.49.53.93.93,0,0,1-.67.31.76.76,0,0,1-.72-1,.89.89,0,0,1,.18-.35A18.94,18.94,0,0,1,19,58.36a12.68,12.68,0,0,1,1.58-1,4.29,4.29,0,0,1,2-.51,4.81,4.81,0,0,1,1.73.35,5.29,5.29,0,0,1,2.43,1.93,10.87,10.87,0,0,1,1.53,3.07c.1.28.17.52.23.74s0,.17,0,.26v.06A.79.79,0,0,1,28,64,1,1,0,0,1,27.68,64Z"/><path class="cls-1" d="M35.36,61.8h0a1.84,1.84,0,0,1-.68-.35,17.78,17.78,0,0,1-3.32-3.15A11.46,11.46,0,0,1,29,53.52a9.12,9.12,0,0,1,.71-5.9l.14-.24a.78.78,0,0,1,.77-.37h.05a.68.68,0,0,1,.43.24.85.85,0,0,1,.25.51,1,1,0,0,1-.09.3,9,9,0,0,0-.77,2.33A7.55,7.55,0,0,0,31,54.68a11.3,11.3,0,0,0,2.49,3.61c.46.45,1,.87,1.41,1.28l.06,0c.2.17.4.34.59.52l.07.06a2.51,2.51,0,0,1,.23.21.83.83,0,0,1,.23.81.9.9,0,0,1-.67.58Z"/></svg>