<svg xmlns="http://www.w3.org/2000/svg" viewBox="0 0 67.74 68.15">
  <defs>
    <style>
      .cls-1, .cls-2 {
        fill: none;
        stroke: #e3828a;
        stroke-width: 3px;
      }

      .cls-1 {
        stroke-miterlimit: 10;
      }

      .cls-2 {
        stroke-linejoin: bevel;
      }
    </style>
  </defs>
  <title>icon</title>
  <g id="stroked_icons" data-name="stroked icons">
    <g>
      <polyline class="cls-1" points="31.14 18.73 14.52 2.12 3.47 13.17 20.09 29.79"/>
      <polyline class="cls-1" points="38.42 48.12 54.02 63.71 65.06 52.66 49.47 37.07"/>
      <line class="cls-1" x1="8.43" y1="17.01" x2="14.52" y2="10.92"/>
      <line class="cls-1" x1="13.09" y1="21.69" x2="16.93" y2="17.86"/>
      <line class="cls-1" x1="40.77" y1="49.37" x2="44.61" y2="45.53"/>
      <line class="cls-1" x1="49.82" y1="58.42" x2="53.66" y2="54.59"/>
      <line class="cls-1" x1="17.65" y1="26.38" x2="23.54" y2="20.48"/>
      <line class="cls-1" x1="45.37" y1="54.1" x2="51.26" y2="48.2"/>
      <polygon class="cls-1" points="18.02 62.3 65.62 14.7 53.61 2.68 5.75 50.28 2.02 66.12 18.02 62.3"/>
      <line class="cls-1" x1="4.37" y1="56.16" x2="11.67" y2="63.47"/>
      <line class="cls-1" x1="20.15" y1="60.6" x2="15.17" y2="59.81"/>
      <line class="cls-1" x1="15.37" y1="55.81" x2="16.16" y2="60.79"/>
      <line class="cls-1" x1="16.35" y1="56.8" x2="11.37" y2="56"/>
      <line class="cls-1" x1="11.57" y1="52.01" x2="12.36" y2="56.99"/>
      <line class="cls-2" x1="12.56" y1="53" x2="7.58" y2="52.21"/>
      <line class="cls-2" x1="7.78" y1="48.21" x2="8.57" y2="53.2"/>
      <line class="cls-1" x1="11.48" y1="53.2" x2="50.36" y2="14.31"/>
      <line class="cls-1" x1="14.94" y1="57.43" x2="54.04" y2="18.33"/>
      <line class="cls-1" x1="46.26" y1="9.98" x2="58.3" y2="22.02"/>
    </g>
  </g>
</svg>
