<?xml version="1.0" encoding="utf-8"?>
<!-- Generator: Adobe Illustrator 23.0.3, SVG Export Plug-In . SVG Version: 6.00 Build 0)  -->
<svg version="1.1" id="Layer_1" xmlns="http://www.w3.org/2000/svg" xmlns:xlink="http://www.w3.org/1999/xlink" x="0px" y="0px"
	 viewBox="0 0 800 800" style="enable-background:new 0 0 800 800;" xml:space="preserve">
<style type="text/css">
	.st0{fill:#D65B65;}
</style>
<g>
	<g>
		<path class="st0" d="M100.6,415.8H75V275.2h25.6V415.8z"/>
		<path d="M263.9,374.4c0,5-0.6,9.6-1.9,13.6s-3,7.6-5,10.6s-4.5,5.7-7.4,7.8c-2.8,2.2-5.7,3.9-8.7,5.3s-6.1,2.4-9.2,3s-6,1-8.8,1
			h-98.3v-25.5h98.3c4.9,0,8.7-1.4,11.4-4.3c2.7-2.9,4.1-6.7,4.1-11.6c0-2.4-0.4-4.5-1.1-6.5s-1.8-3.7-3.1-5.1s-3-2.5-4.9-3.3
			s-4.1-1.2-6.4-1.2h-58.6c-4.1,0-8.6-0.7-13.3-2.2c-4.8-1.5-9.2-3.8-13.3-7.1s-7.5-7.5-10.2-12.8c-2.7-5.3-4.1-11.8-4.1-19.4
			c0-7.6,1.4-14.1,4.1-19.4c2.7-5.3,6.1-9.5,10.2-12.9c4.1-3.3,8.5-5.7,13.3-7.2c4.8-1.5,9.2-2.2,13.3-2.2H251v25.5h-86.8
			c-4.8,0-8.6,1.5-11.3,4.4c-2.7,2.9-4.1,6.8-4.1,11.7c0,4.9,1.4,8.8,4.1,11.6s6.5,4.3,11.3,4.3h58.6h0.2c2.8,0.1,5.6,0.4,8.7,1.1
			c3.1,0.7,6.1,1.8,9.2,3.2s5.9,3.3,8.7,5.4s5.2,4.8,7.3,7.9s3.8,6.6,5,10.6C263.2,364.9,263.9,369.4,263.9,374.4z"/>
		<path d="M399.1,380c0,4.4-0.6,8.3-1.7,11.8c-1.1,3.5-2.6,6.6-4.4,9.2c-1.8,2.6-4,4.9-6.4,6.8c-2.4,1.9-5,3.4-7.6,4.6s-5.3,2-8,2.6
			s-5.2,0.8-7.6,0.8h-46v-25.5h46c3.4,0,6-0.9,7.6-2.6c1.7-1.8,2.5-4.3,2.5-7.6v-34.3c0-3.5-0.9-6.1-2.6-7.8
			c-1.7-1.7-4.3-2.5-7.6-2.5h-45.8c-3.5,0-6.1,0.9-7.8,2.6s-2.6,4.3-2.6,7.6v103.4h-25.5V345.5c0-4.4,0.5-8.3,1.7-11.8
			c1.1-3.5,2.6-6.5,4.5-9.2c1.9-2.6,4-4.9,6.4-6.8c2.4-1.9,5-3.4,7.6-4.6s5.3-2,8-2.6c2.7-0.5,5.3-0.8,7.6-0.8h46
			c4.4,0,8.3,0.6,11.8,1.7c3.5,1.1,6.5,2.6,9.2,4.4c2.6,1.8,4.9,4,6.8,6.4c1.9,2.4,3.4,5,4.6,7.6s2,5.3,2.6,8
			c0.5,2.7,0.8,5.2,0.8,7.6L399.1,380L399.1,380z"/>
		<path d="M446.7,288h-25.5v-23h25.5V288z M446.7,415.8h-25.5v-106h25.5V415.8z"/>
		<path d="M588.6,415.8h-25.5V357c0-3.3-0.6-6.3-1.7-9c-1.1-2.6-2.7-4.9-4.7-6.8c-2-1.9-4.3-3.4-6.9-4.4c-2.7-1-5.5-1.5-8.6-1.5
			h-44.6v80.5h-25.5v-93.4c0-1.8,0.3-3.4,1-5c0.6-1.5,1.6-2.9,2.8-4c1.2-1.1,2.5-2,4.1-2.7c1.6-0.6,3.2-1,5-1h57.5
			c3.2,0,6.6,0.4,10.2,1.1c3.6,0.7,7.1,1.9,10.6,3.5s6.8,3.6,10,6.1c3.2,2.5,6,5.4,8.4,8.9c2.5,3.5,4.4,7.5,5.8,12.1
			c1.4,4.6,2.2,9.7,2.2,15.5L588.6,415.8L588.6,415.8z"/>
		<path d="M725,344.9c0,3.5-0.6,7.3-1.9,11.4c-1.2,4.1-3.3,7.9-6,11.4c-2.8,3.5-6.4,6.4-10.9,8.8c-4.5,2.4-9.9,3.5-16.3,3.5h-46
			v-24.2h46c3.5,0,6.1-1.1,8-3.2c1.9-2.1,2.8-4.8,2.8-7.9c0-3.3-1.1-6-3.2-7.8c-2.1-1.9-4.7-2.8-7.7-2.8h-46c-3.5,0-6.2,1.1-8,3.2
			c-1.9,2.1-2.8,4.8-2.8,7.9v35.6c0,3.4,1.1,6,3.2,7.9c2.1,1.9,4.8,2.8,7.9,2.8h45.8v24.3h-46c-3.5,0-7.3-0.6-11.4-1.9
			c-4.1-1.2-7.9-3.3-11.4-6c-3.5-2.8-6.4-6.4-8.8-10.9c-2.3-4.5-3.5-9.9-3.5-16.3v-35.8c0-3.5,0.6-7.3,1.9-11.4
			c1.2-4.1,3.3-7.9,6-11.4c2.8-3.5,6.4-6.4,10.9-8.8c4.5-2.4,9.9-3.5,16.3-3.5h46c3.5,0,7.3,0.6,11.4,1.9c4.1,1.2,7.9,3.3,11.4,6
			c3.5,2.8,6.4,6.4,8.8,10.9C723.8,333,725,338.5,725,344.9z"/>
	</g>
	<g>
		<path d="M139.4,497.3c0,2.4-0.3,4.6-0.9,6.5c-0.6,1.9-1.4,3.6-2.4,5c-1,1.5-2.2,2.7-3.5,3.7c-1.3,1-2.7,1.8-4.2,2.5
			c-1.4,0.6-2.9,1.1-4.4,1.4c-1.5,0.3-2.9,0.5-4.2,0.5H94.6c-2.4,0-4.6-0.3-6.4-0.9c-1.9-0.6-3.6-1.4-5-2.4s-2.7-2.2-3.7-3.5
			c-1-1.3-1.8-2.7-2.5-4.2s-1.1-2.9-1.4-4.4c-0.3-1.5-0.5-2.9-0.5-4.2v-18.9c0-3.6,0.7-6.6,2-9.1s2.9-4.5,4.9-6.1s4.1-2.7,6.4-3.4
			c2.3-0.7,4.4-1,6.3-1h25.2v14H94.7c-1.9,0-3.3,0.5-4.2,1.4c-1,1-1.4,2.3-1.4,4.2v18.8c0,1.9,0.5,3.3,1.4,4.3s2.3,1.5,4.2,1.5h25.2
			c1.9,0,3.3-0.5,4.2-1.5s1.4-2.4,1.4-4.2v-63h14L139.4,497.3L139.4,497.3z"/>
		<path d="M166.9,446.9h-14v-12.6h14V446.9z M166.9,516.9h-14v-58.1h14V516.9z"/>
		<path d="M236.5,497.3c0,2.4-0.3,4.6-0.9,6.5c-0.6,1.9-1.4,3.6-2.4,5c-1,1.5-2.2,2.7-3.5,3.7c-1.3,1-2.7,1.8-4.2,2.5
			c-1.4,0.6-2.9,1.1-4.4,1.4s-2.9,0.5-4.2,0.5H179v-14h37.7c1.9,0,3.3-0.5,4.3-1.5s1.4-2.4,1.4-4.2c-0.2-3.7-2.1-5.6-5.6-5.6h-21.7
			c-3.1,0-5.7-0.5-7.8-1.6c-2.1-1.1-3.9-2.4-5.2-4c-1.3-1.6-2.3-3.4-2.9-5.2s-0.9-3.6-0.9-5.2c0-3.1,0.6-5.7,1.7-7.9
			s2.5-3.9,4.2-5.2c1.7-1.3,3.5-2.3,5.5-2.9s3.8-0.9,5.5-0.9h34.3v14h-34.2c-0.7,0-1.3,0.1-1.7,0.2s-0.7,0.4-0.9,0.6
			c-0.2,0.3-0.3,0.6-0.4,0.9c0,0.3-0.1,0.6-0.1,0.9c0,0.6,0.1,1,0.3,1.3c0.2,0.3,0.4,0.6,0.7,0.7s0.6,0.2,0.9,0.2s0.7,0,1,0h21.6
			c3.6,0,6.6,0.6,9.1,1.9c2.5,1.3,4.5,2.9,6.1,4.9c1.5,2,2.7,4.1,3.4,6.4C236.1,493.2,236.5,495.3,236.5,497.3z"/>
		<path d="M310.3,497.3c0,2.4-0.3,4.6-0.9,6.5c-0.6,1.9-1.4,3.6-2.4,5c-1,1.5-2.2,2.7-3.5,3.7c-1.3,1-2.7,1.8-4.2,2.5
			c-1.5,0.6-2.9,1.1-4.4,1.4s-2.9,0.5-4.2,0.5h-25.2v-14h25.2c1.9,0,3.3-0.5,4.2-1.5s1.4-2.4,1.4-4.2v-18.8c0-1.9-0.5-3.4-1.4-4.3
			c-1-0.9-2.3-1.4-4.2-1.4h-25.1c-1.9,0-3.3,0.5-4.3,1.4c-1,1-1.5,2.3-1.5,4.2V535h-14v-56.7c0-2.4,0.3-4.5,0.9-6.5
			c0.6-1.9,1.4-3.6,2.4-5c1-1.5,2.2-2.7,3.5-3.7c1.3-1,2.7-1.9,4.2-2.5c1.5-0.6,2.9-1.1,4.4-1.4c1.5-0.3,2.9-0.5,4.2-0.5h25.2
			c2.4,0,4.5,0.3,6.5,0.9c1.9,0.6,3.6,1.4,5,2.4c1.5,1,2.7,2.2,3.7,3.5c1,1.3,1.9,2.7,2.5,4.2c0.6,1.5,1.1,2.9,1.4,4.4
			c0.3,1.5,0.5,2.9,0.5,4.2L310.3,497.3L310.3,497.3z"/>
		<path d="M384.7,478c0,1.9-0.3,4-1,6.3c-0.7,2.2-1.8,4.3-3.3,6.2c-1.5,1.9-3.5,3.5-6,4.8c-2.5,1.3-5.4,1.9-9,1.9h-25.2V484h25.2
			c1.9,0,3.4-0.6,4.4-1.8c1-1.2,1.6-2.6,1.6-4.3c0-1.8-0.6-3.3-1.8-4.3c-1.2-1-2.6-1.6-4.2-1.6h-25.2c-1.9,0-3.4,0.6-4.4,1.8
			c-1,1.2-1.6,2.6-1.6,4.3v19.5c0,1.9,0.6,3.3,1.8,4.4c1.2,1,2.6,1.6,4.3,1.6h25.1v13.3h-25.2c-1.9,0-4-0.3-6.3-1
			c-2.2-0.7-4.3-1.8-6.2-3.3c-1.9-1.5-3.5-3.5-4.8-6c-1.3-2.5-1.9-5.4-1.9-9V478c0-1.9,0.3-4,1-6.3c0.7-2.2,1.8-4.3,3.3-6.2
			c1.5-1.9,3.5-3.5,6-4.8c2.5-1.3,5.4-1.9,8.9-1.9h25.2c1.9,0,4,0.3,6.3,1c2.2,0.7,4.3,1.8,6.2,3.3c1.9,1.5,3.5,3.5,4.8,6
			C384,471.5,384.7,474.5,384.7,478z"/>
		<path d="M458.5,516.9h-14v-32.2c0-1.8-0.3-3.5-0.9-4.9s-1.5-2.7-2.5-3.7c-1.1-1-2.3-1.8-3.8-2.4c-1.5-0.5-3-0.8-4.7-0.8h-24.5
			v44.1h-14v-51.1c0-1,0.2-1.9,0.5-2.7c0.4-0.8,0.9-1.6,1.5-2.2c0.6-0.6,1.4-1.1,2.3-1.5c0.9-0.4,1.8-0.5,2.7-0.5h31.5
			c1.8,0,3.6,0.2,5.6,0.6c2,0.4,3.9,1,5.8,1.9c1.9,0.9,3.7,2,5.5,3.3c1.7,1.3,3.3,3,4.6,4.9s2.4,4.1,3.2,6.6
			c0.8,2.5,1.2,5.3,1.2,8.5L458.5,516.9L458.5,516.9z"/>
		<path d="M526.8,497.3c0,2.4-0.3,4.6-0.9,6.5c-0.6,1.9-1.4,3.6-2.4,5c-1,1.5-2.2,2.7-3.5,3.7c-1.3,1-2.7,1.8-4.2,2.5
			c-1.5,0.6-2.9,1.1-4.4,1.4c-1.5,0.3-2.9,0.5-4.2,0.5h-37.8v-14h37.7c1.9,0,3.3-0.5,4.3-1.5s1.4-2.4,1.4-4.2
			c-0.2-3.7-2.1-5.6-5.6-5.6h-21.6c-3.1,0-5.7-0.5-7.8-1.6c-2.1-1.1-3.9-2.4-5.2-4s-2.3-3.4-2.9-5.2s-0.9-3.6-0.9-5.2
			c0-3.1,0.6-5.7,1.7-7.9c1.1-2.1,2.5-3.9,4.2-5.2c1.7-1.3,3.5-2.3,5.5-2.9s3.8-0.9,5.5-0.9h34.3v14h-34.2c-0.7,0-1.3,0.1-1.7,0.2
			s-0.7,0.4-0.9,0.6c-0.2,0.3-0.3,0.6-0.4,0.9s0,0.6,0,0.9c0,0.6,0.1,1,0.3,1.3s0.4,0.6,0.7,0.7c0.3,0.1,0.6,0.2,0.9,0.2s0.7,0,1,0
			h21.6c3.6,0,6.6,0.6,9.1,1.9c2.5,1.3,4.5,2.9,6.1,4.9c1.5,2,2.7,4.1,3.4,6.4C526.5,493.2,526.8,495.3,526.8,497.3z"/>
		<path d="M599.1,478c0,1.9-0.3,4-1,6.3c-0.7,2.2-1.8,4.3-3.3,6.2c-1.5,1.9-3.5,3.5-6,4.8s-5.4,1.9-9,1.9h-25.2V484h25.2
			c1.9,0,3.4-0.6,4.4-1.8c1-1.2,1.6-2.6,1.6-4.3c0-1.8-0.6-3.3-1.8-4.3c-1.2-1-2.6-1.6-4.2-1.6h-25.2c-1.9,0-3.4,0.6-4.4,1.8
			c-1,1.2-1.6,2.6-1.6,4.3v19.5c0,1.9,0.6,3.3,1.8,4.4c1.2,1,2.6,1.6,4.3,1.6h25.1v13.3h-25.2c-1.9,0-4-0.3-6.3-1s-4.3-1.8-6.2-3.3
			c-1.9-1.5-3.5-3.5-4.8-6c-1.3-2.5-1.9-5.4-1.9-9V478c0-1.9,0.3-4,1-6.3c0.7-2.2,1.8-4.3,3.3-6.2c1.5-1.9,3.5-3.5,6-4.8
			s5.4-1.9,8.9-1.9h25.2c1.9,0,4,0.3,6.3,1s4.3,1.8,6.2,3.3c1.9,1.5,3.5,3.5,4.8,6C598.5,471.5,599.1,474.5,599.1,478z"/>
		<path d="M659.3,472.8h-31.4c-1.9,0-3.3,0.5-4.3,1.4c-1,1-1.5,2.3-1.5,4.2v38.5h-14v-38.5c0-2.4,0.3-4.5,0.9-6.5
			c0.6-1.9,1.4-3.6,2.4-5s2.2-2.7,3.5-3.7c1.3-1,2.7-1.9,4.2-2.5c1.5-0.6,2.9-1.1,4.4-1.4c1.5-0.3,2.9-0.5,4.2-0.5h31.5L659.3,472.8
			L659.3,472.8z"/>
		<path d="M724.7,497.3c0,2.4-0.3,4.6-0.9,6.5c-0.6,1.9-1.4,3.6-2.4,5c-1,1.5-2.2,2.7-3.5,3.7c-1.3,1-2.7,1.8-4.2,2.5
			c-1.5,0.6-2.9,1.1-4.4,1.4s-2.9,0.5-4.2,0.5h-37.8v-14H705c1.9,0,3.3-0.5,4.3-1.5s1.5-2.4,1.5-4.2c-0.2-3.7-2.1-5.6-5.6-5.6h-21.7
			c-3.1,0-5.7-0.5-7.8-1.6c-2.2-1.1-3.9-2.4-5.2-4c-1.3-1.6-2.3-3.4-2.9-5.2s-0.9-3.6-0.9-5.2c0-3.1,0.6-5.7,1.7-7.9
			s2.5-3.9,4.2-5.2c1.7-1.3,3.5-2.3,5.5-2.9s3.8-0.9,5.5-0.9h34.3v14h-34.2c-0.7,0-1.3,0.1-1.7,0.2s-0.7,0.4-0.9,0.6
			c-0.2,0.3-0.3,0.6-0.3,0.9s0,0.6,0,0.9c0,0.6,0.1,1,0.3,1.3s0.4,0.6,0.7,0.7c0.3,0.1,0.6,0.2,0.9,0.2c0.3,0,0.7,0,1,0h21.7
			c3.6,0,6.6,0.6,9.1,1.9c2.5,1.3,4.5,2.9,6.1,4.9c1.5,2,2.7,4.1,3.4,6.4C724.3,493.2,724.7,495.3,724.7,497.3z"/>
	</g>
</g>
</svg>
