<?xml version="1.0" encoding="utf-8"?>
<!-- Generator: Adobe Illustrator 24.0.0, SVG Export Plug-In . SVG Version: 6.00 Build 0)  -->
<svg version="1.1" id="Layer_1" xmlns="http://www.w3.org/2000/svg" xmlns:xlink="http://www.w3.org/1999/xlink" x="0px" y="0px"
	 viewBox="0 0 800 800" style="enable-background:new 0 0 800 800;" xml:space="preserve">
<style type="text/css">
	.st0{fill:#D52627;}
</style>
<g>
	<g>
		<path class="st0" d="M100.59,415.78H75V275.17h25.59V415.78z"/>
		<path d="M263.85,374.4c0,5.03-0.64,9.56-1.91,13.58c-1.27,4.02-2.96,7.57-5.05,10.64c-2.09,3.07-4.54,5.69-7.35,7.84
			c-2.81,2.16-5.72,3.92-8.73,5.29c-3.01,1.37-6.06,2.39-9.17,3.04c-3.11,0.65-6.03,0.98-8.78,0.98h-98.35v-25.49h98.35
			c4.9,0,8.71-1.44,11.42-4.31c2.71-2.88,4.07-6.73,4.07-11.57c0-2.35-0.36-4.51-1.08-6.47c-0.72-1.96-1.75-3.66-3.09-5.1
			c-1.34-1.44-2.97-2.55-4.9-3.33c-1.93-0.78-4.07-1.18-6.42-1.18h-58.64c-4.12,0-8.56-0.74-13.34-2.21
			c-4.77-1.47-9.2-3.84-13.29-7.11c-4.09-3.27-7.49-7.55-10.2-12.84c-2.71-5.3-4.07-11.77-4.07-19.41c0-7.65,1.36-14.1,4.07-19.37
			c2.71-5.26,6.11-9.54,10.2-12.85c4.08-3.3,8.51-5.69,13.29-7.16c4.77-1.47,9.22-2.21,13.34-2.21h86.78v25.49h-86.78
			c-4.84,0-8.61,1.47-11.33,4.41c-2.71,2.94-4.07,6.83-4.07,11.67c0,4.9,1.36,8.78,4.07,11.62c2.71,2.84,6.49,4.27,11.33,4.27h58.64
			h0.2c2.75,0.07,5.65,0.44,8.73,1.13c3.07,0.69,6.13,1.75,9.17,3.19c3.04,1.44,5.93,3.25,8.68,5.44c2.75,2.19,5.18,4.82,7.3,7.89
			c2.12,3.07,3.81,6.6,5.05,10.59C263.23,364.85,263.85,369.36,263.85,374.4z"/>
		<path d="M399.07,379.99c0,4.38-0.56,8.32-1.67,11.82c-1.11,3.5-2.58,6.57-4.41,9.22c-1.83,2.65-3.96,4.9-6.37,6.77
			c-2.42,1.86-4.95,3.38-7.6,4.56c-2.65,1.18-5.31,2.04-7.99,2.6c-2.68,0.56-5.23,0.83-7.65,0.83h-45.99v-25.49h45.99
			c3.4,0,5.95-0.88,7.65-2.65c1.7-1.76,2.55-4.31,2.55-7.65v-34.32c0-3.53-0.87-6.14-2.6-7.84c-1.73-1.7-4.27-2.55-7.6-2.55h-45.79
			c-3.47,0-6.08,0.87-7.84,2.6c-1.76,1.73-2.65,4.27-2.65,7.6v103.45H281.6V345.47c0-4.38,0.55-8.3,1.67-11.77
			c1.11-3.46,2.6-6.52,4.46-9.17c1.86-2.65,4-4.9,6.42-6.77c2.42-1.86,4.95-3.38,7.6-4.56c2.65-1.18,5.33-2.04,8.04-2.6
			c2.71-0.55,5.25-0.83,7.6-0.83h45.99c4.38,0,8.3,0.56,11.77,1.67c3.46,1.11,6.52,2.58,9.17,4.41c2.65,1.83,4.9,3.96,6.77,6.37
			c1.86,2.42,3.38,4.95,4.56,7.6c1.18,2.65,2.04,5.31,2.6,7.99c0.55,2.68,0.83,5.23,0.83,7.65V379.99z"/>
		<path d="M446.72,288.01h-25.49v-23.04h25.49V288.01z M446.72,415.78h-25.49v-106h25.49V415.78z"/>
		<path d="M588.61,415.78h-25.49v-58.83c0-3.33-0.57-6.32-1.72-8.97c-1.14-2.65-2.7-4.92-4.66-6.82c-1.96-1.9-4.27-3.35-6.91-4.36
			c-2.65-1.01-5.51-1.52-8.58-1.52h-44.61v80.5h-25.49v-93.35c0-1.76,0.33-3.42,0.98-4.95c0.65-1.54,1.57-2.88,2.75-4.02
			c1.18-1.14,2.55-2.04,4.12-2.7c1.57-0.65,3.24-0.98,5-0.98h57.46c3.2,0,6.58,0.36,10.15,1.08c3.56,0.72,7.09,1.88,10.59,3.48
			c3.5,1.6,6.83,3.63,10,6.08c3.17,2.45,5.98,5.43,8.43,8.92c2.45,3.5,4.4,7.53,5.83,12.11c1.44,4.58,2.16,9.74,2.16,15.49V415.78z"
			/>
		<path d="M725,344.88c0,3.53-0.62,7.34-1.86,11.42c-1.24,4.09-3.25,7.88-6.03,11.37c-2.78,3.5-6.41,6.42-10.88,8.78
			c-4.48,2.35-9.92,3.53-16.33,3.53h-45.99v-24.22h45.99c3.46,0,6.14-1.06,8.04-3.19c1.9-2.12,2.84-4.76,2.84-7.89
			c0-3.33-1.06-5.95-3.19-7.84c-2.12-1.9-4.69-2.84-7.7-2.84h-45.99c-3.47,0-6.15,1.06-8.04,3.19c-1.9,2.13-2.84,4.76-2.84,7.89
			v35.59c0,3.4,1.06,6.05,3.19,7.94c2.12,1.9,4.76,2.84,7.89,2.84h45.79v24.32h-45.99c-3.53,0-7.34-0.62-11.42-1.86
			c-4.09-1.24-7.88-3.25-11.37-6.03c-3.5-2.78-6.42-6.41-8.78-10.88c-2.35-4.48-3.53-9.92-3.53-16.33v-35.79
			c0-3.53,0.62-7.34,1.86-11.42c1.24-4.09,3.25-7.88,6.03-11.37c2.78-3.5,6.41-6.42,10.88-8.78c4.48-2.35,9.92-3.53,16.33-3.53
			h45.99c3.53,0,7.34,0.62,11.42,1.86c4.08,1.24,7.88,3.25,11.37,6.03c3.5,2.78,6.42,6.41,8.78,10.88
			C723.82,333.03,725,338.48,725,344.88z"/>
	</g>
	<g>
		<path d="M139.43,497.26c0,2.4-0.3,4.56-0.91,6.47c-0.61,1.92-1.42,3.6-2.42,5.05c-1,1.45-2.17,2.69-3.49,3.71s-2.71,1.85-4.16,2.5
			c-1.45,0.64-2.92,1.12-4.41,1.42c-1.49,0.3-2.89,0.46-4.22,0.46h-25.2c-2.4,0-4.55-0.3-6.45-0.91c-1.9-0.61-3.57-1.42-5.02-2.44
			c-1.45-1.02-2.69-2.19-3.71-3.52c-1.02-1.32-1.85-2.71-2.5-4.16c-0.65-1.45-1.12-2.92-1.42-4.41c-0.3-1.49-0.46-2.87-0.46-4.16
			v-18.91c0-3.58,0.65-6.62,1.96-9.11c1.31-2.49,2.94-4.51,4.89-6.07c1.95-1.56,4.07-2.68,6.37-3.36c2.29-0.68,4.41-1.02,6.34-1.02
			h25.2v13.97H94.73c-1.86,0-3.28,0.48-4.24,1.42c-0.97,0.95-1.45,2.34-1.45,4.16v18.8c0,1.9,0.47,3.33,1.42,4.3
			c0.95,0.97,2.34,1.45,4.16,1.45h25.2c1.9,0,3.31-0.48,4.24-1.45c0.93-0.97,1.4-2.36,1.4-4.19v-63.02h13.97V497.26z"/>
		<path d="M166.94,446.87h-13.97v-12.63h13.97V446.87z M166.94,516.87h-13.97v-58.08h13.97V516.87z"/>
		<path d="M236.46,497.26c0,2.4-0.3,4.56-0.91,6.47c-0.61,1.92-1.42,3.6-2.42,5.05c-1,1.45-2.17,2.69-3.49,3.71
			c-1.33,1.02-2.71,1.85-4.16,2.5c-1.45,0.64-2.92,1.12-4.41,1.42c-1.49,0.3-2.89,0.46-4.22,0.46h-37.82V502.9h37.72
			c1.9,0,3.33-0.48,4.3-1.45c0.97-0.97,1.45-2.36,1.45-4.19c-0.18-3.73-2.06-5.59-5.64-5.59H195.2c-3.08,0-5.69-0.54-7.84-1.61
			c-2.15-1.07-3.9-2.42-5.24-4.03c-1.34-1.61-2.31-3.35-2.9-5.21c-0.59-1.86-0.89-3.6-0.89-5.21c0-3.12,0.56-5.74,1.67-7.87
			c1.11-2.13,2.51-3.86,4.19-5.18c1.68-1.33,3.51-2.28,5.48-2.87c1.97-0.59,3.81-0.89,5.53-0.89h34.33v13.97h-34.22
			c-0.72,0-1.28,0.08-1.69,0.24c-0.41,0.16-0.72,0.38-0.91,0.65c-0.2,0.27-0.31,0.56-0.35,0.86c-0.04,0.3-0.05,0.6-0.05,0.89
			c0.03,0.57,0.14,1.02,0.32,1.34c0.18,0.32,0.4,0.56,0.67,0.7c0.27,0.14,0.57,0.22,0.91,0.24c0.34,0.02,0.67,0.03,0.99,0.03h21.65
			c3.58,0,6.63,0.64,9.13,1.93c2.51,1.29,4.53,2.91,6.07,4.86c1.54,1.95,2.66,4.07,3.36,6.37
			C236.11,493.16,236.46,495.29,236.46,497.26z"/>
		<path d="M310.28,497.26c0,2.4-0.3,4.56-0.91,6.47c-0.61,1.92-1.42,3.6-2.42,5.05c-1,1.45-2.17,2.69-3.49,3.71
			c-1.33,1.02-2.71,1.85-4.16,2.5c-1.45,0.64-2.91,1.12-4.38,1.42c-1.47,0.3-2.87,0.46-4.19,0.46h-25.2V502.9h25.2
			c1.86,0,3.26-0.48,4.19-1.45c0.93-0.97,1.4-2.36,1.4-4.19v-18.8c0-1.93-0.48-3.37-1.42-4.3c-0.95-0.93-2.34-1.4-4.16-1.4h-25.09
			c-1.9,0-3.33,0.48-4.3,1.42c-0.97,0.95-1.45,2.34-1.45,4.16v56.68h-13.97v-56.68c0-2.4,0.3-4.55,0.91-6.45
			c0.61-1.9,1.42-3.57,2.44-5.02c1.02-1.45,2.19-2.69,3.52-3.71c1.32-1.02,2.71-1.85,4.16-2.5c1.45-0.64,2.92-1.12,4.41-1.42
			c1.49-0.3,2.87-0.46,4.16-0.46h25.2c2.4,0,4.55,0.3,6.45,0.91c1.9,0.61,3.57,1.42,5.02,2.42c1.45,1,2.69,2.17,3.71,3.49
			c1.02,1.33,1.85,2.71,2.5,4.16c0.64,1.45,1.12,2.91,1.42,4.38c0.3,1.47,0.46,2.87,0.46,4.19V497.26z"/>
		<path d="M384.69,478.03c0,1.93-0.34,4.02-1.02,6.26c-0.68,2.24-1.78,4.32-3.3,6.23c-1.52,1.92-3.51,3.52-5.96,4.81
			c-2.45,1.29-5.44,1.93-8.95,1.93h-25.2v-13.27h25.2c1.9,0,3.37-0.58,4.41-1.75c1.04-1.16,1.56-2.61,1.56-4.32
			c0-1.83-0.58-3.26-1.75-4.3c-1.16-1.04-2.57-1.56-4.22-1.56h-25.2c-1.9,0-3.37,0.58-4.41,1.75c-1.04,1.16-1.56,2.61-1.56,4.33
			v19.5c0,1.86,0.58,3.31,1.75,4.35c1.16,1.04,2.61,1.56,4.32,1.56h25.09v13.32h-25.2c-1.93,0-4.02-0.34-6.26-1.02
			c-2.24-0.68-4.32-1.78-6.23-3.3c-1.92-1.52-3.52-3.51-4.81-5.96c-1.29-2.45-1.93-5.43-1.93-8.95v-19.61
			c0-1.93,0.34-4.02,1.02-6.26c0.68-2.24,1.78-4.32,3.3-6.23c1.52-1.92,3.51-3.52,5.96-4.81c2.45-1.29,5.43-1.93,8.94-1.93h25.2
			c1.93,0,4.02,0.34,6.26,1.02c2.24,0.68,4.32,1.78,6.23,3.3c1.92,1.52,3.52,3.51,4.81,5.96
			C384.05,471.54,384.69,474.52,384.69,478.03z"/>
		<path d="M458.46,516.87h-13.97v-32.24c0-1.83-0.31-3.47-0.94-4.92c-0.63-1.45-1.48-2.69-2.55-3.73c-1.07-1.04-2.34-1.84-3.79-2.39
			c-1.45-0.55-3.02-0.83-4.7-0.83h-24.45v44.11H394.1v-51.15c0-0.97,0.18-1.87,0.54-2.71c0.36-0.84,0.86-1.58,1.5-2.2
			c0.64-0.63,1.4-1.12,2.26-1.48c0.86-0.36,1.77-0.54,2.74-0.54h31.48c1.75,0,3.61,0.2,5.56,0.59c1.95,0.39,3.89,1.03,5.8,1.91
			c1.92,0.88,3.74,1.99,5.48,3.33c1.74,1.34,3.28,2.97,4.62,4.89c1.34,1.92,2.41,4.13,3.2,6.63c0.79,2.51,1.18,5.34,1.18,8.49
			V516.87z"/>
		<path d="M526.85,497.26c0,2.4-0.3,4.56-0.91,6.47c-0.61,1.92-1.41,3.6-2.42,5.05c-1,1.45-2.17,2.69-3.49,3.71
			c-1.33,1.02-2.71,1.85-4.16,2.5c-1.45,0.64-2.92,1.12-4.41,1.42c-1.49,0.3-2.89,0.46-4.22,0.46h-37.82V502.9h37.72
			c1.9,0,3.33-0.48,4.3-1.45c0.97-0.97,1.45-2.36,1.45-4.19c-0.18-3.73-2.06-5.59-5.64-5.59h-21.65c-3.08,0-5.69-0.54-7.84-1.61
			c-2.15-1.07-3.9-2.42-5.24-4.03c-1.34-1.61-2.31-3.35-2.9-5.21c-0.59-1.86-0.89-3.6-0.89-5.21c0-3.12,0.56-5.74,1.67-7.87
			c1.11-2.13,2.51-3.86,4.19-5.18c1.68-1.33,3.51-2.28,5.48-2.87c1.97-0.59,3.81-0.89,5.53-0.89h34.33v13.97H485.7
			c-0.72,0-1.28,0.08-1.69,0.24c-0.41,0.16-0.72,0.38-0.91,0.65c-0.2,0.27-0.31,0.56-0.35,0.86c-0.04,0.3-0.05,0.6-0.05,0.89
			c0.03,0.57,0.14,1.02,0.32,1.34c0.18,0.32,0.4,0.56,0.67,0.7c0.27,0.14,0.57,0.22,0.91,0.24c0.34,0.02,0.67,0.03,0.99,0.03h21.65
			c3.58,0,6.63,0.64,9.13,1.93c2.51,1.29,4.53,2.91,6.07,4.86c1.54,1.95,2.66,4.07,3.36,6.37
			C526.5,493.16,526.85,495.29,526.85,497.26z"/>
		<path d="M599.11,478.03c0,1.93-0.34,4.02-1.02,6.26c-0.68,2.24-1.78,4.32-3.3,6.23c-1.52,1.92-3.51,3.52-5.96,4.81
			c-2.45,1.29-5.44,1.93-8.95,1.93h-25.2v-13.27h25.2c1.9,0,3.37-0.58,4.41-1.75c1.04-1.16,1.56-2.61,1.56-4.32
			c0-1.83-0.58-3.26-1.75-4.3c-1.16-1.04-2.57-1.56-4.22-1.56h-25.2c-1.9,0-3.37,0.58-4.41,1.75c-1.04,1.16-1.56,2.61-1.56,4.33
			v19.5c0,1.86,0.58,3.31,1.75,4.35c1.16,1.04,2.61,1.56,4.32,1.56h25.09v13.32h-25.2c-1.93,0-4.02-0.34-6.26-1.02
			c-2.24-0.68-4.32-1.78-6.23-3.3c-1.92-1.52-3.52-3.51-4.81-5.96c-1.29-2.45-1.93-5.43-1.93-8.95v-19.61
			c0-1.93,0.34-4.02,1.02-6.26c0.68-2.24,1.78-4.32,3.3-6.23c1.52-1.92,3.51-3.52,5.96-4.81c2.45-1.29,5.43-1.93,8.94-1.93h25.2
			c1.93,0,4.02,0.34,6.26,1.02c2.24,0.68,4.32,1.78,6.23,3.3c1.92,1.52,3.52,3.51,4.81,5.96
			C598.47,471.54,599.11,474.52,599.11,478.03z"/>
		<path d="M659.34,472.76h-31.43c-1.9,0-3.33,0.48-4.3,1.42c-0.97,0.95-1.45,2.34-1.45,4.16v38.52h-13.97v-38.52
			c0-2.4,0.3-4.55,0.91-6.45c0.61-1.9,1.42-3.57,2.44-5.02s2.19-2.69,3.52-3.71c1.32-1.02,2.71-1.85,4.16-2.5
			c1.45-0.64,2.92-1.12,4.41-1.42c1.49-0.3,2.87-0.46,4.16-0.46h31.54V472.76z"/>
		<path d="M724.67,497.26c0,2.4-0.3,4.56-0.91,6.47c-0.61,1.92-1.42,3.6-2.42,5.05c-1,1.45-2.17,2.69-3.49,3.71
			c-1.33,1.02-2.71,1.85-4.16,2.5c-1.45,0.64-2.92,1.12-4.41,1.42c-1.49,0.3-2.89,0.46-4.22,0.46h-37.82V502.9h37.72
			c1.9,0,3.33-0.48,4.3-1.45c0.97-0.97,1.45-2.36,1.45-4.19c-0.18-3.73-2.06-5.59-5.64-5.59h-21.65c-3.08,0-5.69-0.54-7.84-1.61
			c-2.15-1.07-3.9-2.42-5.24-4.03c-1.34-1.61-2.31-3.35-2.9-5.21c-0.59-1.86-0.89-3.6-0.89-5.21c0-3.12,0.56-5.74,1.67-7.87
			c1.11-2.13,2.51-3.86,4.19-5.18c1.68-1.33,3.51-2.28,5.48-2.87c1.97-0.59,3.81-0.89,5.53-0.89h34.33v13.97h-34.22
			c-0.72,0-1.28,0.08-1.69,0.24c-0.41,0.16-0.72,0.38-0.91,0.65c-0.2,0.27-0.31,0.56-0.35,0.86c-0.04,0.3-0.05,0.6-0.05,0.89
			c0.03,0.57,0.14,1.02,0.32,1.34c0.18,0.32,0.4,0.56,0.67,0.7c0.27,0.14,0.57,0.22,0.91,0.24c0.34,0.02,0.67,0.03,0.99,0.03h21.65
			c3.58,0,6.63,0.64,9.13,1.93c2.51,1.29,4.53,2.91,6.07,4.86c1.54,1.95,2.66,4.07,3.36,6.37
			C724.32,493.16,724.67,495.29,724.67,497.26z"/>
	</g>
</g>
</svg>
